<svg xmlns="http://www.w3.org/2000/svg" width="710.08" height="596.69"><path fill="#fff" d="M377.85 502.73a8 8 0 0 1 3.44.72 7.6 7.6 0 0 1 2.58 1.95 8.8 8.8 0 0 1 1.62 2.85 10.85 10.85 0 0 1 0 6.94 8.7 8.7 0 0 1-1.62 2.85 7.45 7.45 0 0 1-2.58 1.94 8.7 8.7 0 0 1-6.89 0 7.6 7.6 0 0 1-2.58-1.94 8.7 8.7 0 0 1-1.62-2.85 11 11 0 0 1 0-6.94 8.8 8.8 0 0 1 1.62-2.85 7.8 7.8 0 0 1 2.58-1.95 8 8 0 0 1 3.45-.72m0 2.45a4.94 4.94 0 0 0-2.37.55 4.7 4.7 0 0 0-1.62 1.48 6.9 6.9 0 0 0-.92 2.1 9.75 9.75 0 0 0 0 4.8 6.9 6.9 0 0 0 .92 2.1 4.7 4.7 0 0 0 1.62 1.48 4.94 4.94 0 0 0 2.37.55 4.9 4.9 0 0 0 2.36-.55 4.7 4.7 0 0 0 1.62-1.48 6.6 6.6 0 0 0 .92-2.1 9.45 9.45 0 0 0 0-4.8 6.6 6.6 0 0 0-.92-2.1 4.7 4.7 0 0 0-1.62-1.48 4.9 4.9 0 0 0-2.36-.59ZM388.79 503.14h8.18a6.32 6.32 0 0 1 4.25 1.23 4.23 4.23 0 0 1 1.42 3.4 5 5 0 0 1-.36 2 4.4 4.4 0 0 1-.84 1.3 3.4 3.4 0 0 1-.95.71c-.31.14-.54.23-.68.28v.08a2.9 2.9 0 0 1 .82.24 2.4 2.4 0 0 1 .83.61 3.4 3.4 0 0 1 .64 1.09 4.8 4.8 0 0 1 .25 1.69 15.3 15.3 0 0 0 .23 2.74 3.6 3.6 0 0 0 .71 1.77h-3.22a2.9 2.9 0 0 1-.4-1.23c0-.44-.06-.88-.06-1.29a12 12 0 0 0-.14-2 3.6 3.6 0 0 0-.53-1.42 2.2 2.2 0 0 0-1-.82 4.5 4.5 0 0 0-1.69-.27h-4.42v7.06h-3Zm3 7.8h4.92a3.17 3.17 0 0 0 2.19-.68 2.68 2.68 0 0 0 .74-2.05 3.2 3.2 0 0 0-.24-1.34 1.94 1.94 0 0 0-.66-.8 2.4 2.4 0 0 0-1-.38 6 6 0 0 0-1.12-.1h-4.87ZM405.69 503.14h3v17.14h-3ZM427.31 520.28h-1.92l-.46-2a7.15 7.15 0 0 1-2.4 1.9 6.8 6.8 0 0 1-2.76.53 8.1 8.1 0 0 1-3.44-.71 7.45 7.45 0 0 1-2.58-1.94 8.7 8.7 0 0 1-1.62-2.85 11 11 0 0 1 0-6.94 8.8 8.8 0 0 1 1.62-2.85 7.6 7.6 0 0 1 2.58-1.95 8 8 0 0 1 3.44-.72 9.3 9.3 0 0 1 2.66.38 6.9 6.9 0 0 1 2.24 1.1 6.1 6.1 0 0 1 1.63 1.83 6.5 6.5 0 0 1 .82 2.55h-2.93a3.73 3.73 0 0 0-1.51-2.55 4.4 4.4 0 0 0-1.35-.64 5.3 5.3 0 0 0-1.56-.22 4.9 4.9 0 0 0-2.36.55 4.7 4.7 0 0 0-1.62 1.48 6.6 6.6 0 0 0-.92 2.1 9.75 9.75 0 0 0 0 4.8 6.6 6.6 0 0 0 .92 2.1 4.7 4.7 0 0 0 1.62 1.48 4.9 4.9 0 0 0 2.36.55 5.8 5.8 0 0 0 2-.3 3.91 3.91 0 0 0 2.43-2.44 6.1 6.1 0 0 0 .33-2h-4.56v-2.28h7.3ZM430.57 503.14h3v17.14h-3ZM437.14 503.14h3.16l7.84 12.63v-12.63h2.85v17.14h-3.17l-7.8-12.6h-.07v12.6h-2.81ZM459.14 503.14h3.19l6.6 17.14h-3.22l-1.57-4.54h-6.84l-1.61 4.54h-3.1Zm-1 10.32h5.23l-2.6-7.32h-.08ZM470.58 503.14h3v14.55h8.71v2.59h-11.71ZM491.03 503.14h7.56a7.15 7.15 0 0 1 3 .53 4.6 4.6 0 0 1 1.78 1.32 4.4 4.4 0 0 1 .85 1.73 7 7 0 0 1 .23 1.73 6.8 6.8 0 0 1-.23 1.71 4.4 4.4 0 0 1-.85 1.72 4.6 4.6 0 0 1-1.78 1.31 7.3 7.3 0 0 1-3 .51h-4.56v6.58h-3Zm3 8.11h4.39a3.7 3.7 0 0 0 1-.14 3 3 0 0 0 1-.47 2.45 2.45 0 0 0 .72-.86 3 3 0 0 0 .27-1.36 3.5 3.5 0 0 0-.24-1.39 2.2 2.2 0 0 0-.65-.88 2.35 2.35 0 0 0-.93-.44 5 5 0 0 0-1.13-.12h-4.44ZM507.04 503.14h8.18a6.34 6.34 0 0 1 4.25 1.23 4.26 4.26 0 0 1 1.42 3.4 4.8 4.8 0 0 1-.37 2 4.4 4.4 0 0 1-.83 1.3 3.6 3.6 0 0 1-.95.71c-.31.14-.54.23-.69.28v.08a3 3 0 0 1 .83.24 2.5 2.5 0 0 1 .83.61 3.4 3.4 0 0 1 .64 1.09 5 5 0 0 1 .25 1.69 15.4 15.4 0 0 0 .22 2.74 3.7 3.7 0 0 0 .71 1.77h-3.21a2.75 2.75 0 0 1-.4-1.23c0-.44-.06-.88-.06-1.29a13 13 0 0 0-.14-2 3.7 3.7 0 0 0-.53-1.42 2.23 2.23 0 0 0-1-.82 4.6 4.6 0 0 0-1.7-.27h-4.45v7.06h-3Zm3 7.8h4.92a3.13 3.13 0 0 0 2.18-.68 2.64 2.64 0 0 0 .75-2.05 3.2 3.2 0 0 0-.24-1.34 2 2 0 0 0-.67-.8 2.3 2.3 0 0 0-1-.38 5.7 5.7 0 0 0-1.11-.1h-4.83ZM523.74 503.14h3v10c0 .58 0 1.17.08 1.76a4 4 0 0 0 .49 1.59 3 3 0 0 0 1.2 1.17 5.93 5.93 0 0 0 4.53 0 3 3 0 0 0 1.2-1.17 3.9 3.9 0 0 0 .48-1.59 17 17 0 0 0 .09-1.76v-10h3v11a7.5 7.5 0 0 1-.51 2.88 5.4 5.4 0 0 1-1.43 2 5.9 5.9 0 0 1-2.22 1.24 10.3 10.3 0 0 1-5.76 0 6 6 0 0 1-2.22-1.24 5.5 5.5 0 0 1-1.42-2 7.5 7.5 0 0 1-.51-2.88ZM543.23 514.57a3.9 3.9 0 0 0 .33 1.68 3.2 3.2 0 0 0 .94 1.14 4 4 0 0 0 1.38.64 6.5 6.5 0 0 0 1.69.21 5.5 5.5 0 0 0 1.68-.23 3.3 3.3 0 0 0 1.13-.59 2 2 0 0 0 .62-.83 2.4 2.4 0 0 0 .2-.94 2 2 0 0 0-.45-1.46 2.54 2.54 0 0 0-1-.66c-.61-.22-1.32-.43-2.12-.63s-1.81-.46-3-.78a6.4 6.4 0 0 1-1.84-.76 4.4 4.4 0 0 1-1.16-1 3.6 3.6 0 0 1-.61-1.23 4.9 4.9 0 0 1-.18-1.32 4.45 4.45 0 0 1 .54-2.24 4.7 4.7 0 0 1 1.43-1.57 6.2 6.2 0 0 1 2-.93 8.8 8.8 0 0 1 2.28-.3 9 9 0 0 1 2.53.35 6.3 6.3 0 0 1 2.09 1 5.2 5.2 0 0 1 1.43 1.72 5.1 5.1 0 0 1 .53 2.37h-3a2.88 2.88 0 0 0-1.13-2.34 4.45 4.45 0 0 0-2.57-.69 6 6 0 0 0-1.08.11 3.4 3.4 0 0 0-1 .36 2.2 2.2 0 0 0-.75.68 1.86 1.86 0 0 0-.3 1.08 1.82 1.82 0 0 0 .56 1.43 3.54 3.54 0 0 0 1.48.78l.75.21 1.48.39 1.59.42 1.12.3a5.1 5.1 0 0 1 1.46.72 4.6 4.6 0 0 1 1.05 1.05 4.1 4.1 0 0 1 .62 1.26 4.4 4.4 0 0 1 .21 1.34 4.87 4.87 0 0 1-.59 2.46 5.06 5.06 0 0 1-1.55 1.67 6.8 6.8 0 0 1-2.18 1 11 11 0 0 1-2.5.3 10.2 10.2 0 0 1-2.76-.36 6.6 6.6 0 0 1-2.26-1.11 5.4 5.4 0 0 1-1.53-1.91 6.15 6.15 0 0 1-.6-2.74ZM561.4 503.14h3.19l6.6 17.14h-3.22l-1.61-4.54h-6.84l-1.6 4.54h-3.1Zm-1.06 10.32h5.23l-2.57-7.32h-.07ZM579.14 503.14h2.74v2.59h-2.74Zm0 4.73h2.74v12.41h-2.74ZM588.92 510.44a7 7 0 0 0 1.35-.1 3.7 3.7 0 0 0 1.2-.42 2.33 2.33 0 0 0 .85-.83 2.4 2.4 0 0 0 .32-1.29 2.19 2.19 0 0 0-.73-1.73 2.74 2.74 0 0 0-1.88-.65 2.6 2.6 0 0 0-1.25.29 2.6 2.6 0 0 0-.88.78 3.6 3.6 0 0 0-.51 1.1 4.4 4.4 0 0 0-.15 1.26h-2.73a7 7 0 0 1 .45-2.27 6 6 0 0 1 1.12-1.81 4.9 4.9 0 0 1 1.72-1.2 5.9 5.9 0 0 1 2.28-.43 6.7 6.7 0 0 1 1.93.29 5.5 5.5 0 0 1 1.7.84 4.1 4.1 0 0 1 1.21 1.4 4 4 0 0 1 .46 2 4.13 4.13 0 0 1-.58 2.22 3.28 3.28 0 0 1-1.8 1.38v.05a3.5 3.5 0 0 1 2.25 1.43 4.72 4.72 0 0 1 .8 2.77 4.65 4.65 0 0 1-.48 2.14 4.8 4.8 0 0 1-1.29 1.61 6.1 6.1 0 0 1-1.9 1 7.7 7.7 0 0 1-4.84-.06 4.9 4.9 0 0 1-1.82-1.19 5.1 5.1 0 0 1-1.12-1.84 7.5 7.5 0 0 1-.4-2.4h2.73a3.78 3.78 0 0 0 .76 2.55 2.87 2.87 0 0 0 2.41 1 3.42 3.42 0 0 0 2.29-.78 2.74 2.74 0 0 0 .93-2.22 2.77 2.77 0 0 0-.39-1.56 2.44 2.44 0 0 0-1-.87 3.9 3.9 0 0 0-1.4-.37 12 12 0 0 0-1.6 0ZM548.57 532.05h2.06v4.75a3 3 0 0 1 .52-.61 3.1 3.1 0 0 1 .68-.46 3.6 3.6 0 0 1 .77-.29 3.2 3.2 0 0 1 .8-.1 4.4 4.4 0 0 1 1.92.39 3.8 3.8 0 0 1 1.36 1.06 4.6 4.6 0 0 1 .81 1.58 6.7 6.7 0 0 1 .27 1.92 7 7 0 0 1-.24 1.82 4.9 4.9 0 0 1-.74 1.56 3.57 3.57 0 0 1-3 1.48 8 8 0 0 1-.95-.06 4 4 0 0 1-.91-.24 3 3 0 0 1-.78-.47 2.3 2.3 0 0 1-.59-.76v1.28h-2Zm7.17 8.21a5 5 0 0 0-.16-1.23 3.3 3.3 0 0 0-.49-1 2.6 2.6 0 0 0-.81-.74 2.17 2.17 0 0 0-1.12-.28 2.26 2.26 0 0 0-1.95.9 4 4 0 0 0-.66 2.4 4.5 4.5 0 0 0 .18 1.3 2.9 2.9 0 0 0 .51 1 2.7 2.7 0 0 0 .82.68 2.26 2.26 0 0 0 1.1.25 2.2 2.2 0 0 0 1.19-.29 2.5 2.5 0 0 0 .8-.74 3.1 3.1 0 0 0 .45-1.05 5.3 5.3 0 0 0 .14-1.2M558.49 535.59h2.25l2.4 6.95 2.36-6.95h2.14L564 545.4c-.17.42-.33.83-.49 1.21a4.6 4.6 0 0 1-.59 1 2.6 2.6 0 0 1-.87.7 3 3 0 0 1-1.32.26 10 10 0 0 1-1.43-.11v-1.73l.49.08a2.6 2.6 0 0 0 .49 0 1.7 1.7 0 0 0 .59-.09 1 1 0 0 0 .39-.26 1.7 1.7 0 0 0 .26-.41 4 4 0 0 0 .2-.54l.23-.72ZM581.08 540.76a10 10 0 0 1-.14 1.64 3.5 3.5 0 0 1-.59 1.42 3 3 0 0 1-1.28 1 5.5 5.5 0 0 1-2.22.38 4.3 4.3 0 0 1-1.74-.32 3.3 3.3 0 0 1-1.19-.86 3.6 3.6 0 0 1-.69-1.31 6 6 0 0 1-.21-1.64v-.68h2.25v.67a3.25 3.25 0 0 0 .37 1.7 1.49 1.49 0 0 0 1.39.6 2.1 2.1 0 0 0 .89-.16 1.3 1.3 0 0 0 .56-.48 2 2 0 0 0 .28-.78 7 7 0 0 0 .07-1.06v-8.84h2.25ZM587.8 545.14a5 5 0 0 1-2-.37 4.1 4.1 0 0 1-1.48-1 4.5 4.5 0 0 1-.92-1.55 6 6 0 0 1-.31-2 5.9 5.9 0 0 1 .31-2 4.4 4.4 0 0 1 .92-1.55 4.25 4.25 0 0 1 1.48-1 5.5 5.5 0 0 1 4 0 4.25 4.25 0 0 1 1.48 1 4.4 4.4 0 0 1 .92 1.55 5.9 5.9 0 0 1 .31 2 6 6 0 0 1-.31 2 4.5 4.5 0 0 1-.92 1.55 4.1 4.1 0 0 1-1.48 1 5 5 0 0 1-2 .37m0-1.62a2.25 2.25 0 0 0 1.18-.29 2.4 2.4 0 0 0 .83-.75 3.2 3.2 0 0 0 .48-1.06 4.7 4.7 0 0 0 .15-1.19 4.9 4.9 0 0 0-.15-1.19 3 3 0 0 0-.48-1 2.4 2.4 0 0 0-.83-.75 2.57 2.57 0 0 0-2.37 0 2.5 2.5 0 0 0-.83.75 3 3 0 0 0-.48 1 4.9 4.9 0 0 0-.15 1.19 4.7 4.7 0 0 0 .15 1.19 3.2 3.2 0 0 0 .48 1.06 2.5 2.5 0 0 0 .83.75 2.26 2.26 0 0 0 1.19.3ZM595.75 541.91a1.54 1.54 0 0 0 .69 1.26 2.7 2.7 0 0 0 1.42.36 5 5 0 0 0 .65 0 3 3 0 0 0 .7-.17 1.45 1.45 0 0 0 .53-.37 1 1 0 0 0-.1-1.29 2.1 2.1 0 0 0-.69-.41 9 9 0 0 0-1-.26l-1.09-.23a9 9 0 0 1-1.11-.31 3.8 3.8 0 0 1-1-.48 2.34 2.34 0 0 1-.61-.87 2.44 2.44 0 0 1-.25-1.17 2.08 2.08 0 0 1 .37-1.27 2.66 2.66 0 0 1 .93-.83 4 4 0 0 1 1.26-.44 7 7 0 0 1 1.33-.13 6 6 0 0 1 1.37.15 3.8 3.8 0 0 1 1.19.5 2.9 2.9 0 0 1 .88.89 3 3 0 0 1 .44 1.32h-2.14a1.27 1.27 0 0 0-.67-1 3 3 0 0 0-1.22-.25 3.4 3.4 0 0 0-.51 0 2.4 2.4 0 0 0-.56.13 1.2 1.2 0 0 0-.44.29.7.7 0 0 0-.18.5.8.8 0 0 0 .26.61 2.1 2.1 0 0 0 .69.38 6.6 6.6 0 0 0 1 .27l1.12.23a10 10 0 0 1 1.1.31 3.7 3.7 0 0 1 1 .48 2.5 2.5 0 0 1 .69.78 2.36 2.36 0 0 1 .26 1.15 2.5 2.5 0 0 1-.38 1.4 2.94 2.94 0 0 1-1 .94 4.7 4.7 0 0 1-1.35.52 6.7 6.7 0 0 1-1.46.16 6.4 6.4 0 0 1-1.63-.2 3.8 3.8 0 0 1-1.3-.6 2.9 2.9 0 0 1-.87-1 3.2 3.2 0 0 1-.33-1.43ZM605.14 540.78a3.6 3.6 0 0 0 .15 1 2.5 2.5 0 0 0 .46.88 2.1 2.1 0 0 0 .77.61 2.6 2.6 0 0 0 1.12.22 2.46 2.46 0 0 0 1.5-.35 2.27 2.27 0 0 0 .82-1.16h1.94a3.7 3.7 0 0 1-.56 1.35 3.8 3.8 0 0 1-.95 1 3.9 3.9 0 0 1-1.25.61 5 5 0 0 1-1.45.21 4.9 4.9 0 0 1-1.94-.36 3.9 3.9 0 0 1-1.44-1 4.25 4.25 0 0 1-.88-1.54 6.2 6.2 0 0 1-.29-2 5.7 5.7 0 0 1 .31-1.89 4.8 4.8 0 0 1 .9-1.56 4.23 4.23 0 0 1 3.29-1.47 4.15 4.15 0 0 1 2 .46 4.4 4.4 0 0 1 1.45 1.22 4.9 4.9 0 0 1 .83 1.73 5.3 5.3 0 0 1 .14 2Zm4.79-1.35a3.7 3.7 0 0 0-.21-.94 2.5 2.5 0 0 0-.47-.78 2.4 2.4 0 0 0-.72-.54 2.1 2.1 0 0 0-.94-.21 2.4 2.4 0 0 0-1 .19 2.3 2.3 0 0 0-.75.52 2.7 2.7 0 0 0-.51.79 2.8 2.8 0 0 0-.2 1ZM612.64 535.59h1.5v-.77a4 4 0 0 1 .22-1.43 2 2 0 0 1 .58-.85 1.8 1.8 0 0 1 .82-.39 4.2 4.2 0 0 1 1-.1 6.2 6.2 0 0 1 1.38.09v1.61a2.6 2.6 0 0 0-.42-.09h-.53a1.22 1.22 0 0 0-.72.2.88.88 0 0 0-.29.77v1h1.74v1.51h-1.74v7.78h-2.04v-7.78h-1.5ZM624.52 532.05h5.67a5.5 5.5 0 0 1 2.23.39 3.7 3.7 0 0 1 1.33 1 3.5 3.5 0 0 1 .64 1.3 5.7 5.7 0 0 1 .17 1.3 5.6 5.6 0 0 1-.17 1.28 3.55 3.55 0 0 1-.64 1.29 3.45 3.45 0 0 1-1.33 1 5.5 5.5 0 0 1-2.23.39h-3.42v4.93h-2.25Zm2.25 6.08h3.29a2.6 2.6 0 0 0 .77-.11 2.1 2.1 0 0 0 .73-.35 1.8 1.8 0 0 0 .54-.65 2.16 2.16 0 0 0 .21-1 2.7 2.7 0 0 0-.18-1 1.7 1.7 0 0 0-1.19-1 3.7 3.7 0 0 0-.84-.09h-3.33ZM636.23 535.59h1.91v1.8a2 2 0 0 1 .36-.73 3.3 3.3 0 0 1 .63-.66 3 3 0 0 1 .81-.48 2.5 2.5 0 0 1 .92-.18h.78v2l-.44-.06a3 3 0 0 0-.45 0 2.25 2.25 0 0 0-1.78.81 3 3 0 0 0-.54 1 4.4 4.4 0 0 0-.2 1.37v4.43h-2ZM650.74 544.9h-2v-1.3a2.8 2.8 0 0 1-1.13 1.13 3 3 0 0 1-1.52.42 3.4 3.4 0 0 1-2.65-.91 4 4 0 0 1-.82-2.74v-5.91h2.05v5.71a2.54 2.54 0 0 0 .47 1.73 1.72 1.72 0 0 0 1.31.5 2.5 2.5 0 0 0 1.08-.2 1.9 1.9 0 0 0 .7-.53 2.1 2.1 0 0 0 .39-.8 4 4 0 0 0 .12-1v-5.4h2.05ZM654.45 541.91a1.56 1.56 0 0 0 .69 1.23 2.7 2.7 0 0 0 1.42.36 5 5 0 0 0 .66 0 3 3 0 0 0 .69-.17 1.4 1.4 0 0 0 .54-.37.9.9 0 0 0 .18-.64.9.9 0 0 0-.28-.65 2.1 2.1 0 0 0-.7-.41 8 8 0 0 0-1-.26l-1.1-.23a9 9 0 0 1-1.1-.31 3.6 3.6 0 0 1-1-.48 2.2 2.2 0 0 1-.67-.79 2.44 2.44 0 0 1-.26-1.17 2.14 2.14 0 0 1 .37-1.27 2.8 2.8 0 0 1 .94-.83 4 4 0 0 1 1.26-.44 7 7 0 0 1 1.32-.13 6.2 6.2 0 0 1 1.38.15 4 4 0 0 1 1.19.5 3 3 0 0 1 .88.89 3.2 3.2 0 0 1 .44 1.32h-2.14a1.28 1.28 0 0 0-.68-1 2.9 2.9 0 0 0-1.21-.25 3.5 3.5 0 0 0-.52 0 2.5 2.5 0 0 0-.55.13 1.1 1.1 0 0 0-.44.29.7.7 0 0 0-.18.5.77.77 0 0 0 .26.61 2.1 2.1 0 0 0 .68.38 7 7 0 0 0 1 .27l1.12.23a11 11 0 0 1 1.1.31 3.8 3.8 0 0 1 1 .48 2.3 2.3 0 0 1 .68.78 2.25 2.25 0 0 1 .26 1.15 2.4 2.4 0 0 1-.38 1.4 2.94 2.94 0 0 1-1 .94 4.5 4.5 0 0 1-1.34.52 6.7 6.7 0 0 1-1.46.16 6.5 6.5 0 0 1-1.64-.2 3.7 3.7 0 0 1-1.29-.6 2.9 2.9 0 0 1-.87-1 3.2 3.2 0 0 1-.33-1.43ZM670.04 542.83a1.05 1.05 0 0 0 .1.54.4.4 0 0 0 .38.16h.51v1.42l-.28.08-.35.08h-.36a2 2 0 0 1-.31 0 1.93 1.93 0 0 1-1-.25 1.23 1.23 0 0 1-.54-.88 3.7 3.7 0 0 1-1.51.86 5.9 5.9 0 0 1-1.72.27 4.3 4.3 0 0 1-1.2-.17 3.1 3.1 0 0 1-1-.5 2.5 2.5 0 0 1-.7-.85 2.65 2.65 0 0 1-.26-1.2 2.77 2.77 0 0 1 .31-1.4 2.4 2.4 0 0 1 .83-.85 3.9 3.9 0 0 1 1.15-.44 12 12 0 0 1 1.29-.2 9 9 0 0 1 1.06-.16 5 5 0 0 0 .89-.15 1.4 1.4 0 0 0 .62-.33.93.93 0 0 0 .22-.68 1 1 0 0 0-.19-.65 1.26 1.26 0 0 0-.47-.38 2 2 0 0 0-.62-.18 5 5 0 0 0-.65 0 2.6 2.6 0 0 0-1.42.36 1.41 1.41 0 0 0-.63 1.12h-2a3.2 3.2 0 0 1 .43-1.5 3 3 0 0 1 1-.95 3.7 3.7 0 0 1 1.32-.5 7.5 7.5 0 0 1 1.51-.15 6 6 0 0 1 1.35.15 4 4 0 0 1 1.2.46 2.6 2.6 0 0 1 .85.84 2.26 2.26 0 0 1 .33 1.25Zm-2.06-2.59a2.6 2.6 0 0 1-1.15.37 13 13 0 0 0-1.37.19 3.6 3.6 0 0 0-.63.15 1.7 1.7 0 0 0-.54.27 1.16 1.16 0 0 0-.36.45 1.5 1.5 0 0 0-.14.67.9.9 0 0 0 .2.58 1.35 1.35 0 0 0 .48.37 2.3 2.3 0 0 0 .61.19 5 5 0 0 0 .6 0 3.4 3.4 0 0 0 .74-.09 2.7 2.7 0 0 0 .75-.3 2.2 2.2 0 0 0 .58-.55 1.4 1.4 0 0 0 .23-.82ZM606.52 507.42h3.16l3.55 10.07 3.45-10.07h3.13v12.86h-2.14v-9.92l-3.53 9.92h-1.85l-3.57-9.92v9.92h-2.14ZM622.55 507.42h2.25v5.85l5.73-5.85h2.77l-5.16 5.13 5.49 7.73h-2.81l-4.18-6.14-1.84 1.82v4.32h-2.25ZM637.62 512.9a5 5 0 0 0 1-.08 2.9 2.9 0 0 0 .9-.31 1.8 1.8 0 0 0 .64-.62 1.86 1.86 0 0 0 .24-1 1.64 1.64 0 0 0-.55-1.3 2.07 2.07 0 0 0-1.41-.49 2 2 0 0 0-.94.22 1.84 1.84 0 0 0-.65.59 2.4 2.4 0 0 0-.39.82 3 3 0 0 0-.11.95h-2.05a5.2 5.2 0 0 1 .34-1.7 4.1 4.1 0 0 1 .84-1.36 3.54 3.54 0 0 1 1.28-.9 4.3 4.3 0 0 1 1.71-.33 5 5 0 0 1 1.45.22 4 4 0 0 1 1.28.63 3.2 3.2 0 0 1 .91 1.05 3.1 3.1 0 0 1 .34 1.47 3.15 3.15 0 0 1-.43 1.67 2.52 2.52 0 0 1-1.35 1 2.57 2.57 0 0 1 1.68 1.07 3.46 3.46 0 0 1 .61 2.08 3.5 3.5 0 0 1-.36 1.61 3.7 3.7 0 0 1-1 1.2 4.4 4.4 0 0 1-1.42.77 5.4 5.4 0 0 1-1.71.27 5.3 5.3 0 0 1-1.91-.32 3.54 3.54 0 0 1-1.37-.89 3.7 3.7 0 0 1-.84-1.38 6 6 0 0 1-.31-1.8h2.1a2.82 2.82 0 0 0 .56 1.91 2.18 2.18 0 0 0 1.81.77 2.56 2.56 0 0 0 1.72-.59 2.05 2.05 0 0 0 .69-1.66 2.1 2.1 0 0 0-.28-1.17 1.93 1.93 0 0 0-.76-.66 3.1 3.1 0 0 0-1.05-.28 12 12 0 0 0-1.2 0Z"/></svg>