<svg xmlns="http://www.w3.org/2000/svg" width="2666.667" height="2666.667"><path d="M736 2399.132c-2.567-.255-7.866-.813-11.776-1.24l-7.11-.778-2.458-2.458-2.458-2.458.746-2.852c.41-1.568 2.065-3.716 3.678-4.773 5.977-3.916 29.432-8.602 62.711-12.528 17.24-2.034 62.356-6.515 73.447-7.295 5.195-.366 10.295-.963 11.333-1.327s12.087-1.592 24.554-2.727c12.466-1.136 28.066-2.652 34.666-3.369 48.097-5.222 69.696-8.052 79.334-10.395 3.3-.802 8.266-1.82 11.037-2.262l5.037-.805-.783-1.266-.782-1.266-15.588.013c-23.318.02-70.35 2.61-108.921 6-3.667.323-17.167 1.48-30 2.571-21.279 1.81-43.152 3.752-83.334 7.4-34.851 3.163-79.97 4.945-87.838 3.469l-4.951-.929-1.468-3.222-1.468-3.222 1.713-2.064c4.854-5.849 24.06-9.932 75.346-16.02 15.4-1.827 30.23-3.627 32.956-4s19.526-2.157 37.333-3.963c17.808-1.807 38.377-3.896 45.71-4.643 7.334-.747 16.034-1.625 19.334-1.951 8.074-.799 39.46-4.415 52.667-6.068 5.866-.734 13.366-1.618 16.666-1.964s7.8-1.159 10-1.806l4-1.176-10-.93c-12.613-1.173-28.082-1.722-99.24-3.52-31.481-.795-57.8-1.792-58.485-2.216s-.945-3.012-.578-5.753l.669-4.982-15.793-17.178L780.114 2258l-.847-4.2c-.466-2.31-.633-5.31-.372-6.667l.475-2.466H854l.39 4 .388 4-9.722 12.012c-9.747 12.042-11.91 14.663-18.723 22.687-2.016 2.376-3.666 4.898-3.666 5.605v1.286l41.666.909c95.333 2.08 125.937 4.93 134.667 12.545 7.792 6.797-5.586 12.111-39.503 15.692-2.29.242-14.664 1.709-27.497 3.26s-29.033 3.35-36 3.999c-31.763 2.958-44.922 4.328-76.667 7.98-13.2 1.52-29.7 3.355-36.666 4.08-16.449 1.71-42.865 5.052-51.334 6.495l-6.666 1.136 6.666.148c3.667.081 17.167-.723 30-1.788 43.523-3.613 71.289-5.993 86-7.373 8.067-.756 22.467-1.964 32-2.685 9.534-.72 23.934-1.906 32-2.634 30.185-2.728 59.434-4.104 84-3.953l25.334.156 5.2 1.8c5.728 1.982 7.415 3.843 7.446 8.213l.02 2.903-3.544 2.787c-3.319 2.61-13.026 6.052-21.305 7.554-1.997.362-4.125.964-4.73 1.337-.603.373-5.145 1.173-10.093 1.776-4.947.603-18.295 2.342-29.661 3.864-22.381 2.997-63.942 7.592-80 8.844-5.5.428-11.8 1.067-14 1.418s-10.3 1.21-18 1.908c-31.136 2.823-68.67 6.937-91.821 10.064-13.468 1.82-25.018 3.308-25.667 3.308-.648 0-1.18.677-1.18 1.504v1.503l92.668-.574 92.667-.574v2.24c0 1.233-.81 2.913-1.799 3.734l-1.798 1.493-24.73 1.288c-22.73 1.185-143.55 1.59-154.34.518Zm305.333-176.43v-85.369h173.334v37.176l-1.667 1.031c-.917.567-30.467 1.353-65.667 1.746l-64 .714-.385 11.667-.385 11.666h77.503l1.339 3.522 1.339 3.52-.372 16.813L1162 2242l-39.643.353-39.643.353-.357 32.314-.357 32.313-20.333.368-20.334.368zm194.223 84.41c-.49-.49-.89-38.89-.89-85.334v-84.445h43.975l.346 65 .346 65 47.777.222c26.278.121 48.023.467 48.322.766.437.437.968 31.51.65 38.012L1376 2308h-69.778c-38.378 0-70.178-.4-70.667-.889zm162.076-19.19.368-20.188 86.197.152 86.197.152 3.34-1.27 3.338-1.27 1.569-4.753 1.569-4.754-.92-4.329c-.506-2.38-1.846-5.379-2.978-6.662l-2.059-2.333h-125.778l-6.57-2.2c-15.44-5.168-27.98-17.866-33.181-33.596l-2.357-7.128.594-12.872.594-12.871 3.372-7.333c4.518-9.824 12.926-19.005 22.596-24.672l7.953-4.662H1568v40h-112.824l-2.429 1.777-2.429 1.776-.66 6.869-.66 6.868 2.16 3.296 2.158 3.295 64.342.46 64.342.459 5.878 2.333c16.996 6.746 27.363 17.498 32.575 33.785l2.214 6.917v20.331l-2.2 6.917c-1.209 3.805-3.009 7.865-4 9.022-.99 1.158-1.8 2.78-1.8 3.604 0 2.97-13.365 14.777-20.933 18.494l-7.734 3.797-94.368.39-94.369.389zm272.969 18.262c-14.548-3.924-29.019-18.813-33.89-34.87l-2.015-6.647-.015-63.7-.016-63.7 21.667.367L1678 2138l.346 62.848.346 62.847 2.19 1.82 2.19 1.818 47.464.417c26.105.229 50.018.04 53.14-.417l5.674-.832 1.992-3.851 1.991-3.85v-19.4c0-10.67.45-19.395 1-19.389.907.013 26.928 21.493 37.236 30.742l4.235 3.8-.615 7.173c-1.178 13.732-8.217 26.815-19.309 35.889l-5.88 4.81-8.292 2.787-8.29 2.788-58.376-.091-58.376-.089-6.065-1.636zm258.581-4.576a1091 1091 0 0 1-10.507-11.667c-2.562-2.9-11.49-12.774-19.84-21.941-21.471-23.572-35.064-38.546-49.574-54.61l-12.594-13.944-.718 14.883c-.394 8.186-1.116 15.283-1.605 15.771-.705.705-9.915-5.477-13.01-8.732-1.312-1.38-16.773-14.202-22.334-18.523l-5.667-4.402v-61.11l21 .043 21 .043 2.022 1.625c1.112.893 7.05 7.324 13.196 14.29a4384 4384 0 0 0 20.228 22.755c4.979 5.548 13.44 15.19 18.804 21.427 8.866 10.31 25.584 29.254 36.317 41.152 22.533 24.978 59.433 67.539 59.433 68.55 0 .431-11.318.783-25.15.783h-25.151zm18.699-78.601c-19.994-23.287-38.796-45.112-41.783-48.5s-6.875-7.887-8.64-10c-1.764-2.112-7.314-8.494-12.333-14.182s-9.125-10.938-9.125-11.667v-1.325h110.667v126.51l-1.217.752c-.67.413-17.576-18.301-37.57-41.588M766.599 2239.4l-1.266-1.267v-18.98c0-10.438.582-20.509 1.293-22.378l1.292-3.399 47.316.013 47.316.013.728 1.18c.401.648 1.122 11.134 1.602 23.3l.872 22.122-1.21.013c-.664 0-22.689.155-48.943.333l-47.734.324-1.266-1.266zm2.401-52.355-3.667-.555v-9.189l49.58.35 49.58.349.475 4.164.475 4.163-3.055.818c-3.332.893-87.43.803-93.388-.1zm-2-15.928c-1.866-.753-2.194-5.554-.557-8.134l1.069-1.683 48.461.35 48.461.35.207 4c.114 2.2-.434 4.44-1.217 4.98-1.573 1.082-93.758 1.213-96.424.137m-.107-16.282-1.773-1.124.44-3.856.44-3.855 48.846-.35 48.847-.35.65 4.35.65 4.35-1.496.98c-2.094 1.37-94.432 1.232-96.604-.145m.698-15.804-2.41-.59.41-4.22L766 2130l48.583-.35 48.583-.35 1.1 1.1c.606.605.72 3.004.254 5.332l-.846 4.231-46.837-.171c-25.76-.095-47.921-.437-49.246-.76m-6.258-17.984c-15.901-4.592-26.618-8.627-30.863-11.619-17.149-12.088-35.812-25.758-39.77-29.13l-4.631-3.948 7.544-4.826c4.149-2.655 7.919-5.433 8.377-6.175s1.963-1.349 3.343-1.349h2.509l7.746 9.545c7.668 9.45 15.912 19.173 23.19 27.35l3.763 4.23 7.063-2.707c3.885-1.489 15.463-5.604 25.73-9.146l18.666-6.44 25.009-.043 25.009-.044 14.99 5.183c8.246 2.85 18.577 6.486 22.96 8.078l7.966 2.895 4.033-4.517c2.218-2.484 9.931-11.556 17.14-20.16l13.108-15.642 4.226 2.522c2.324 1.387 6.776 3.916 9.892 5.62l5.667 3.1-.044 2.088-.045 2.088-11.622 8.403a21914 21914 0 0 0-24.204 17.533l-12.581 9.129-12.086 3.563c-6.646 1.96-13.463 4.12-15.148 4.801l-3.062 1.237-49.604-.136-49.604-.136zm105.1-10.292c6.105-1.381 11.375-2.785 11.71-3.12.666-.666-.444-1.114-20.25-8.176l-13.441-4.792h-50.017l-14.884 5.192c-19.182 6.692-23.184 8.351-21.551 8.937.733.263 4.633 1.352 8.667 2.42l7.333 1.942 40.667.053 40.666.053 11.1-2.51zm-129.746-23.093c-3.656-4.58-7.034-8.629-7.507-8.995-2.902-2.25-17.1-20.903-16.746-22 1.535-4.75 37.809-27.334 43.902-27.334 1.102 0 2.614-.75 3.36-1.666l1.355-1.667-13.833-10c-7.608-5.5-13.844-10.698-13.859-11.551-.024-1.477 17.62-12.449 20.02-12.449.629 0 6.992 6.922 14.14 15.383l12.994 15.383 4.077-1.002c5.827-1.432 46.225-.704 58.077 1.047l10 1.478 6.476-7.144c3.563-3.93 9.738-11.195 13.724-16.145s7.985-9 8.887-9 4.829 2.1 8.726 4.667 7.56 4.666 8.14 4.666 1.755.845 2.611 1.878l1.558 1.877-16.102 11.784-16.103 11.784 4.375 1.874c11.84 5.072 27.033 12.932 31.445 16.267 10.431 7.886 12.263 9.437 12.263 10.383 0 1.121-28.564 35.52-30.475 36.702-.694.429-5.671-1.017-11.06-3.213s-10.399-3.999-11.132-4.006c-.733-.013-2.86-.81-4.725-1.783-5.672-2.96-11.47-3.582-40.606-4.357l-28.002-.746-13.334 4.84c-16.261 5.904-32.863 11.345-34.666 11.361-.734 0-4.325-3.736-7.98-8.316m27.046-34.595c2.46-2.46 1.903-6.144-1.177-7.793l-2.778-1.486-2.556 2.312c-3.18 2.879-3.257 5.359-.222 7.127 3.104 1.807 4.806 1.767 6.733-.16m106.88-.336 1.607-1.936-.827-2.608c-.455-1.434-1.85-3-3.099-3.479l-2.27-.871-2.38 2.938-2.38 2.939 2.242 2.476c2.694 2.977 4.943 3.148 7.108.54" style="fill:#d2d2d2;stroke-width:1.33333" transform="matrix(.9 0 0 .9 133.514 249.588)"/></svg>