<svg xmlns="http://www.w3.org/2000/svg" width="500" height="500"><g fill="none" fill-rule="evenodd"><g fill="#000" style="fill:#212121;fill-opacity:.362694"><path d="M86.23 46.17c4.58-.53 9.21-.32 13.81-.35 106.68 0 213.36.01 320.04 0 10.49-.01 21.05 3.26 29.25 9.9 8.26 6.53 14.13 16 16.22 26.33 1.18 4.89.96 9.95.95 14.94-.01 108.66.01 217.32-.01 325.98-.32 12.96-6.57 25.64-16.65 33.8-8.03 6.56-18.37 10.34-28.76 10.16H98.95c-7.08-.03-14.35.47-21.17-1.84-14.98-4.34-27.17-16.98-30.9-32.13-1.93-6.5-1.37-13.32-1.43-20 0-107.68-.01-215.36 0-323.04.16-22.08 18.74-42.06 40.78-43.75M76.15 71.21c-6.64 4.69-10.29 12.73-10.33 20.78.07 10-.4 20.03.25 30.01-.64 10.63-.27 21.33-.05 31.97-.55 5-.16 10.01.17 15-.79 9.51-.24 19.07-.45 28.6 29.41.32 58.84.05 88.25.14h291.79c-.07-35.91.02-71.82-.04-107.73.05-2.8-.56-5.54-1.5-8.16-3.77-8.73-12.56-15.22-22.19-15.33-110.35-.04-220.7.01-331.05-.02-5.3-.15-10.56 1.66-14.85 4.74m-9.91 147.06c-.03 64.56 0 129.11-.01 193.66.03 5.42-.2 10.86.41 16.27.56 1.25 1.08 2.52 1.59 3.81 2.74 6.23 8.22 10.84 14.52 13.22 1.11.25 2.21.59 3.29.98 6.31.53 12.66.14 18.99.26h276c14.97-.15 29.97.31 44.94-.24 1.31-.51 2.67-.93 4.01-1.36 4.46-1.8 8.44-4.73 11.32-8.59.79-1.45 1.6-2.88 2.39-4.33.53-1.29 1.06-2.56 1.61-3.83.9-12.01.2-24.08.42-36.12V218.27c-126.49.04-252.99.04-379.48 0" style="fill:#212121;fill-opacity:.362694" transform="matrix(.08075 0 0 .08075 446.397 430.117)"/><path d="M115.51 131.7c1.16-.27 2.33-.39 3.53-.37 94 .01 188 0 282 0 5.7-.38 11.05 4.97 10.56 10.68-.08 5.33-5.17 10.16-10.55 9.68-94.39-.03-188.77.03-283.16-.03-3.84.22-7.11-2.65-8.83-5.86-2.45-5.47.63-12.46 6.45-14.1M160.09 275.5c66.96-.14 133.93-.05 200.89-.05-.17.38-.53 1.12-.7 1.5-29.69 35.39-58.95 71.16-88.51 106.65-3.61 4.47-7.43 8.77-10.92 13.32-33.81-40.27-67.14-80.98-100.76-121.42" style="fill:#212121;fill-opacity:.362694" transform="matrix(.08075 0 0 .08075 446.397 430.117)"/></g><path fill="#9bbff1" d="M76.15 71.21c4.29-3.08 9.55-4.89 14.85-4.74 110.35.03 220.7-.02 331.05.02 9.63.11 18.42 6.6 22.19 15.33.94 2.62 1.55 5.36 1.5 8.16.06 35.91-.03 71.82.04 107.73H153.99c-29.41-.09-58.84.18-88.25-.14.21-9.53-.34-19.09.45-28.6-.33-4.99-.72-10-.17-15-.22-10.64-.59-21.34.05-31.97-.65-9.98-.18-20.01-.25-30.01.04-8.05 3.69-16.09 10.33-20.78m39.36 60.49c-5.82 1.64-8.9 8.63-6.45 14.1 1.72 3.21 4.99 6.08 8.83 5.86 94.39.06 188.77 0 283.16.03 5.38.48 10.47-4.35 10.55-9.68.49-5.71-4.86-11.06-10.56-10.68-94 0-188 .01-282 0-1.2-.02-2.37.1-3.53.37" style="fill:#666;fill-opacity:.362694" transform="matrix(.08075 0 0 .08075 446.397 430.117)"/><path d="M66.24 218.27c126.49.04 252.99.04 379.48 0V392c-.22 12.04.48 24.11-.42 36.12-.55 1.27-1.08 2.54-1.61 3.83-.79 1.45-1.6 2.88-2.39 4.33-2.88 3.86-6.86 6.79-11.32 8.59-1.34.43-2.7.85-4.01 1.36-14.97.55-29.97.09-44.94.24h-276c-6.33-.12-12.68.27-18.99-.26-1.08-.39-2.18-.73-3.29-.98-6.3-2.38-11.78-6.99-14.52-13.22-.51-1.29-1.03-2.56-1.59-3.81-.61-5.41-.38-10.85-.41-16.27.01-64.55-.02-129.1.01-193.66m93.85 57.23c33.62 40.44 66.95 81.15 100.76 121.42 3.49-4.55 7.31-8.85 10.92-13.32 29.56-35.49 58.82-71.26 88.51-106.65.17-.38.53-1.12.7-1.5-66.96 0-133.93-.09-200.89.05" style="fill:#fff;fill-opacity:.362694" transform="matrix(.08075 0 0 .08075 446.397 430.117)"/></g></svg>