<svg xmlns="http://www.w3.org/2000/svg" xml:space="preserve" style="fill-rule:evenodd;clip-rule:evenodd;stroke-linejoin:round;stroke-miterlimit:2" viewBox="0 0 2776 2776"><path d="M893.14 1449.47c.413-1.1 30.874-84.83 40.354-110.92 4.138-11.39 7.841-21.52 8.229-22.51l.708-1.81h33.239l.979 2.79c1.208 3.45 47.501 130.53 48.131 132.12.42 1.08-.61 1.15-16.32 1.15h-16.781l-8.764-26.29H935.26l-4.458 13.14-4.459 13.15h-16.754c-13.13 0-16.688-.18-16.447-.82zm79.462-48.89 2.395-.39-7.653-22.92c-4.21-12.6-7.803-22.92-7.984-22.93-.335-.01-14.996 42.44-15.601 45.18l-.327 1.47h13.387c7.363-.01 14.465-.19 15.782-.41zm64.978-.24v-49.96h31.55v13.12l4.93-3.34c7.28-4.94 13.21-6.7 22.68-6.71 6.54-.02 8.26.22 12.82 1.79 10.52 3.6 19.28 11.3 24.02 21.1 4.45 9.2 4.55 10.18 4.56 43.89l.01 30.09-31.23-.36-.11-25.96c-.06-14.28-.27-27.35-.46-29.03-.94-8.56-8.01-15.35-16.8-16.14-7.58-.68-13.93 2.79-17.76 9.72l-2.34 4.23-.18 28.76-.2 28.75h-31.49zm113.06-18.09v-68.05l31.88.36.65 71.53 7.97-9.8c4.38-5.4 10.7-13.21 14.05-17.37 3.36-4.15 6.3-7.78 6.54-8.05.61-.69 33.2-.77 33.34-.07.06.31-8.44 11.18-18.91 24.15-12.42 15.41-18.82 23.84-18.45 24.32.32.41 9.49 11.93 20.39 25.6s19.82 24.99 19.82 25.14c0 .16-8.06.28-17.91.28h-17.92l-28.92-36.05-.35 36.05h-32.18zm129.81 66.97c-10.3-2.17-22.27-9.92-28.61-18.53-7.09-9.63-10.06-18.62-10.05-30.35.02-8.78 1.08-13.53 4.77-21.37 6.11-12.99 16.78-22.27 30.61-26.62 7.06-2.23 18.72-2.56 25.98-.74 6.74 1.68 14.76 5.55 19.85 9.58 13.19 10.46 20.74 28.93 18.5 45.29l-.42 3.05-70.87.34 2.04 4.09c2.24 4.47 5.66 7.81 10.42 10.15 2.48 1.23 4.14 1.51 8.96 1.52 6.95.01 10.34-1.24 14.98-5.52l2.91-2.68h29.19l-.43 1.47c-.88 2.99-5.89 11.12-9.03 14.64-6.71 7.52-17.27 13.82-26.45 15.76-5.78 1.22-16.33 1.18-22.35-.09zm30.89-62.05c-6.59-12.99-23.9-16.18-34.42-6.33-2.49 2.32-6 7.47-6 8.78 0 .69 4.19.86 21.05.86h21.04zm43.06 13.18v-49.97h30.9l.08 6.08c.05 3.35.05 6.3 0 6.58-.14.87.61.52 3.08-1.45 8.56-6.82 20.72-10.99 28.05-9.61l2.31.43v14.11c0 7.75-.22 14.09-.49 14.07-.27-.01-2.27-.45-4.44-.97-12.08-2.92-21.65.51-26.02 9.31l-1.58 3.19-.66 57.84-31.22.36zm76.91-18.09v-68.03h13.5l25.52 25.55c22.14 22.17 25.44 25.72 24.85 26.79-.37.68-5.1 5.62-10.52 10.98-8.4 8.31-10.03 9.65-11.06 9.08-.67-.36-3.27-2.75-5.79-5.31-2.53-2.56-4.74-4.65-4.93-4.65-.2 0-.27 15.9-.18 35.33.1 19.43.01 36-.17 36.81l-.35 1.48h-30.87zm110.43 31.22c0-20.24-.23-36.81-.51-36.81-.29 0-2.72 2.22-5.41 4.93-2.86 2.88-5.45 4.93-6.22 4.93-1.8 0-20.73-18.9-20.73-20.7 0-.87 8.67-9.99 25.14-26.46l25.15-25.14h13.47v136.06h-30.89zm80.3 35.48c-16.55-4.34-29.65-17.31-34.51-34.16-5.34-18.49-.64-37.83 12.38-50.91 8.91-8.97 17.24-12.8 28.96-13.34 9.63-.45 16.93 1.62 23.46 6.63 1.72 1.32 3.28 2.4 3.45 2.4.18 0 .33-2.21.33-4.93v-4.93H1687v100.57h-30.89v-9.34l-2.33 2.05c-7.39 6.48-20.4 8.93-31.74 5.96m20.73-29.59c4.46-2.19 7.8-5.6 10.16-10.4 1.2-2.44 1.5-4.16 1.51-8.63.01-6.69-1.49-10.61-5.76-15.01-4.25-4.39-8.32-6.2-14.72-6.55-4.93-.27-5.73-.13-9.53 1.65-12.96 6.09-16.97 21.56-8.5 32.79 2.67 3.55 8.02 7.11 12.18 8.1 4.38 1.05 10.09.29 14.66-1.95m56.72-37.11v-68.03h32.23l-.18 36.09c-.09 19.85-.01 35.98.2 35.86.2-.13 6.99-8.37 15.07-18.32l14.71-18.09h16.28c8.96 0 16.43.23 16.6.51.17.27-.8 1.81-2.16 3.42s-10.07 12.35-19.36 23.87c-11.15 13.83-16.7 21.2-16.32 21.7.32.4 9.3 11.68 19.95 25.06 10.64 13.37 19.58 24.69 19.85 25.14.38.65-3.28.82-17.47.81h-17.95l-14.46-18.02-14.46-18.02-.35 36.05h-32.18zm129.16 66.79c-9.62-2.61-16.86-6.87-23.77-13.98-9.16-9.45-14.01-21.3-14.02-34.27-.01-13.41 4.41-24.84 13.32-34.37 10.7-11.46 23.76-16.68 39.7-15.88 13.02.65 23.96 5.75 33.14 15.46 9 9.51 13.1 18.99 13.61 31.49.16 4.04.09 8.41-.15 9.69l-.44 2.35h-35.13c-23.74 0-35.14.22-35.14.68 0 1.53 3.33 7.05 5.69 9.43 1.39 1.41 4.16 3.33 6.15 4.27 3.07 1.47 4.49 1.72 9.53 1.71 5.15-.01 6.35-.24 9.34-1.81 1.89-.98 4.46-2.83 5.73-4.09l2.3-2.3h29.56l-.68 1.94c-1.05 3.01-5.38 9.86-8.55 13.54-6.04 7-13.62 12.12-22.37 15.09-4.73 1.6-6.69 1.89-14.35 2.07-7.15.18-9.76-.02-13.47-1.02m33.19-59.07c-.01-.27-.87-1.99-1.93-3.83-8.49-14.8-29.72-14.8-38.21 0-1.05 1.84-1.92 3.56-1.92 3.83-.01.28 9.46.5 21.03.5s21.03-.22 21.03-.5" style="fill:#88f387;fill-opacity:.9;fill-rule:nonzero" transform="translate(-825.477 1083.19)"/><path d="m1502.16 1372.88 21.12 21.12-21.12 21.12-21.12-21.12z" style="fill:#88f387;fill-opacity:.9;fill-rule:nonzero" transform="translate(-825.477 1083.19)"/></svg>