<svg xmlns="http://www.w3.org/2000/svg" viewBox="0 0 334 364"><path d="M263.212 337.685c.002-1.169.018-3.056.036-4.193l.032-2.068.147-.432c.349-1.016 1.007-1.775 1.947-2.244 1.088-.543 2.48-.511 3.532.08a3.9 3.9 0 0 1 1.85 2.46c.082.344.094.505.077 1.022-.018.538-.039.667-.165 1.04a3.87 3.87 0 0 1-2.71 2.533c-.478.124-1.388.116-1.849-.016a3.8 3.8 0 0 1-1.135-.512 2.5 2.5 0 0 0-.29-.181c-.012 0-.022 1.043-.022 2.318v2.318h-1.455zm4.367-3.214c1.292-.273 2.113-1.587 1.784-2.855a2.37 2.37 0 0 0-1.553-1.676c-.388-.133-1.08-.145-1.467-.025-.982.305-1.638 1.217-1.635 2.272.004 1.523 1.362 2.604 2.87 2.285m-9.45 1.52c-.854-.117-1.563-.457-2.165-1.038a3.85 3.85 0 0 1-.982-4.02c.205-.611.447-.991.948-1.487.7-.693 1.446-1.026 2.413-1.077.849-.044 1.603.144 2.23.556l.361.238v-.593l.211.03c.116.015.454.028.75.028h.54v7.318h-1.5v-.764l-.307.206a3.2 3.2 0 0 1-1.157.507c-.46.112-.964.148-1.341.096m1.217-1.582c.425-.148.643-.282.934-.572.732-.732.88-1.85.373-2.808-.367-.69-1.258-1.218-2.06-1.217-.324 0-.82.114-1.112.256-.312.151-.813.642-.968.949a2.56 2.56 0 0 0 0 2.313c.254.502.926 1.005 1.524 1.142.365.083.975.054 1.309-.063m28.319 1.581c-1.597-.22-2.88-1.394-3.259-2.983-.11-.462-.1-1.257.024-1.741a3.87 3.87 0 0 1 2.402-2.681c1.045-.38 2.28-.276 3.216.273.385.226.643.433.988.793l.262.273v-1.341h.682v7.409h-.681l-.001-.784v-.784l-.216.247a4.4 4.4 0 0 1-1.252.956c-.633.306-1.51.453-2.164.363zm1.444-.828c1.705-.604 2.592-2.474 1.962-4.138-.419-1.109-1.54-1.906-2.773-1.972-.57-.031-.991.06-1.542.331-.728.36-1.358 1.083-1.6 1.836-.136.419-.166 1.157-.066 1.604.253 1.14 1.213 2.137 2.324 2.417.435.11 1.275.07 1.695-.078m17.598.838c-.061-.021-.06-3.982.002-4.362.284-1.746 1.706-3.127 3.364-3.265l.362-.03v.177c0 .097.013.253.03.347l.027.17-.176.001c-.316.002-.806.13-1.143.3-.646.326-1.348 1.049-1.558 1.605-.21.555-.226.752-.226 2.961 0 1.148-.015 2.089-.034 2.09a6 6 0 0 1-.648.006m-65.386-.075c-.73-.116-1.932-.52-1.932-.648 0-.092.403-1.017.483-1.108.058-.066.096-.06.427.056.478.17 1.469.312 2.158.311.895 0 1.481-.177 1.814-.545.187-.208.207-.356.071-.546-.19-.268-.594-.391-1.862-.568-1.263-.176-2.104-.501-2.663-1.03-.42-.395-.6-.907-.515-1.45.148-.932.89-1.598 2.155-1.934.41-.11.536-.121 1.295-.124.628-.002.957.018 1.296.08.723.13 1.659.454 1.659.572 0 .111-.474 1.183-.523 1.183a1 1 0 0 1-.225-.07c-.279-.117-.964-.243-1.61-.298-.664-.056-1.386-.008-1.82.12-.458.137-.69.479-.53.785.176.341.672.538 1.857.737 1.065.18 1.392.255 1.766.407.44.18.714.351.956.6.702.72.649 1.783-.128 2.556-.406.404-1.179.776-1.895.913-.439.084-1.712.084-2.234 0zm5.318-1.853c.031-2.456.034-2.489.226-3.062.492-1.472 1.48-2.318 3.018-2.588 1.924-.337 3.695.798 4.253 2.725l.117.4v4.445h-1.41v-2.08c-.001-2.031-.003-2.086-.103-2.377-.351-1.03-1.283-1.725-2.313-1.725-.647 0-1.072.169-1.528.607-.406.39-.615.722-.736 1.171-.1.37-.1.408-.076 2.39l.026 2.014h-1.498zm25.506-.591c.027-2.648.038-2.804.252-3.304a3.6 3.6 0 0 1 .746-1.045c.527-.481 1.15-.725 1.95-.764a2.73 2.73 0 0 1 1.544.342c.377.198.884.659 1.106 1.006.134.208.167.235.21.174.494-.702.79-.973 1.351-1.236 1.63-.764 3.566.005 4.134 1.64.215.622.224.746.224 3.292v2.406h-.727V333.5c0-2.722.002-2.69-.274-3.235-.443-.878-1.526-1.378-2.527-1.167-.828.175-1.422.7-1.749 1.55l-.123.321-.018 2.464c-.01 1.355-.033 2.48-.053 2.5s-.173.036-.34.036h-.303l-.023-2.545c-.022-2.485-.025-2.552-.123-2.81-.153-.406-.301-.63-.602-.908-.754-.698-1.812-.86-2.696-.412-.294.148-.834.688-.999.997-.256.483-.262.547-.262 3.233v2.468h-.724zm20.971-3.239v-5.75h.682v3.84c0 2.113.016 3.841.034 3.84.02 0 .904-.86 1.966-1.908l1.932-1.907.5.002.5.002-1.932 1.908-1.932 1.908 1.907 1.878 1.907 1.879-.442.032-.441.033-.238-.206c-.131-.113-.892-.86-1.692-1.66l-1.454-1.456-.285.282-.284.282v.66c0 .363-.014.983-.03 1.376l-.03.716h-.667v-5.751m8.341 5.684a3.9 3.9 0 0 1-1.125-.438c-.857-.509-1.398-1.18-1.72-2.138-.271-.8-.231-1.816.103-2.618.448-1.078 1.446-1.961 2.56-2.266.404-.11 1.238-.136 1.689-.05a3.84 3.84 0 0 1 2.228 1.3c.23.28.56.842.514.88-.011.01-.318.187-.68.395-.628.36-2.156 1.238-4.262 2.453-.559.322-.966.585-.966.623 0 .036.149.213.33.394.564.561 1.218.82 2.08.822 1.247.003 2.285-.615 2.787-1.659.113-.235.24-.55.28-.7l.075-.273.366-.193.365-.193-.03.261a3.8 3.8 0 0 1-.39 1.307 3.88 3.88 0 0 1-2.397 2.03c-.403.122-1.409.157-1.807.063m-.995-3.122 2.268-1.304 1.608-.922c.21-.118.4-.235.424-.259.055-.055-.57-.61-.942-.836-.87-.529-2.012-.59-2.913-.155-.8.386-1.388 1.077-1.663 1.956-.115.366-.156 1.075-.085 1.444.052.265.2.673.244.673.01 0 .487-.269 1.06-.597" style="fill:#d1d1d3"/></svg>