<svg xmlns="http://www.w3.org/2000/svg" viewBox="0 0 230 250"><path d="M168.42 224.792c.003-1.169.02-3.056.037-4.193l.032-2.068.148-.432c.348-1.016 1.006-1.775 1.947-2.244 1.087-.543 2.48-.511 3.531.08a3.9 3.9 0 0 1 1.85 2.46c.083.344.095.505.077 1.022-.018.538-.038.666-.165 1.04a3.87 3.87 0 0 1-2.71 2.533c-.478.123-1.388.115-1.849-.016a3.8 3.8 0 0 1-1.135-.512 2.5 2.5 0 0 0-.289-.181c-.013 0-.023 1.043-.023 2.318v2.318h-1.455zm4.368-3.214c1.292-.274 2.113-1.587 1.784-2.855a2.37 2.37 0 0 0-1.553-1.676c-.388-.133-1.08-.145-1.466-.025-.982.305-1.638 1.217-1.636 2.272.004 1.523 1.362 2.604 2.871 2.284m-9.449 1.52c-.855-.118-1.563-.457-2.165-1.038a3.85 3.85 0 0 1-.983-4.02c.205-.612.447-.992.948-1.487.701-.693 1.446-1.026 2.414-1.077.848-.044 1.603.144 2.229.556l.362.238v-.593l.21.03c.117.015.454.028.75.028h.54v7.318h-1.5v-.764l-.307.206a3.2 3.2 0 0 1-1.157.507c-.46.112-.964.148-1.34.096m1.216-1.582c.426-.148.644-.282.934-.572.732-.733.88-1.851.373-2.808-.366-.69-1.258-1.218-2.06-1.218-.324 0-.82.115-1.112.257-.312.151-.812.642-.968.949a2.56 2.56 0 0 0 0 2.313c.254.502.926 1.005 1.525 1.141.364.084.974.054 1.308-.062m28.319 1.581c-1.596-.22-2.88-1.394-3.258-2.983-.11-.462-.1-1.258.023-1.741a3.87 3.87 0 0 1 2.402-2.681c1.045-.381 2.28-.276 3.216.273.385.226.643.433.989.793l.261.273v-.67l.001-.671h.682v7.409h-.682v-.784l-.002-.784-.214.247a4.4 4.4 0 0 1-1.253.956c-.633.306-1.51.453-2.164.363zm1.444-.828c1.706-.605 2.592-2.474 1.963-4.139-.42-1.108-1.54-1.905-2.774-1.971-.57-.031-.99.06-1.542.331-.727.36-1.358 1.083-1.6 1.836-.135.419-.165 1.157-.066 1.604.254 1.14 1.213 2.137 2.324 2.417.436.11 1.275.07 1.695-.078m17.599.837c-.062-.02-.06-3.981.002-4.361.283-1.746 1.706-3.127 3.363-3.265l.362-.03v.176c.001.098.014.254.03.348l.028.17-.177.001c-.315.002-.805.13-1.143.3-.646.326-1.347 1.049-1.558 1.605-.21.555-.225.752-.225 2.96 0 1.15-.016 2.09-.034 2.09a6 6 0 0 1-.648.007m-65.387-.074c-.73-.116-1.932-.52-1.932-.648 0-.092.403-1.017.483-1.108.059-.066.097-.061.427.056.478.169 1.47.312 2.158.311.895 0 1.481-.177 1.814-.546.188-.207.207-.355.072-.545-.191-.268-.595-.391-1.863-.568-1.263-.176-2.103-.501-2.663-1.03-.42-.396-.6-.907-.514-1.45.147-.932.89-1.599 2.155-1.935.41-.109.535-.12 1.295-.123.627-.002.956.018 1.295.08.723.13 1.66.454 1.66.571 0 .112-.475 1.184-.524 1.184a1 1 0 0 1-.225-.07c-.278-.117-.964-.244-1.61-.298-.663-.056-1.386-.008-1.819.12-.458.137-.69.479-.531.785.176.341.672.538 1.857.737 1.065.18 1.392.255 1.766.407.44.179.715.351.957.6.701.72.648 1.783-.129 2.556-.406.404-1.179.776-1.894.913-.44.084-1.712.084-2.235 0m5.318-1.854c.032-2.455.034-2.488.226-3.061.492-1.472 1.48-2.318 3.019-2.588 1.924-.337 3.694.798 4.253 2.725l.116.4v4.445h-1.409l-.001-2.08c0-2.032-.003-2.086-.103-2.377-.35-1.03-1.283-1.725-2.312-1.725-.648 0-1.072.168-1.529.607-.405.39-.614.722-.735 1.171-.1.37-.102.408-.077 2.39l.026 2.014h-1.498zm25.506-.59c.027-2.648.039-2.804.253-3.304a3.6 3.6 0 0 1 .746-1.045c.526-.481 1.15-.725 1.95-.764a2.73 2.73 0 0 1 1.543.342c.377.198.884.659 1.107 1.005.133.209.166.236.208.175.495-.702.791-.973 1.353-1.236 1.63-.764 3.565.005 4.133 1.64.216.621.224.746.224 3.292v2.406h-.727v-2.492c0-2.722.002-2.69-.273-3.235-.444-.878-1.527-1.378-2.528-1.167-.828.174-1.421.7-1.748 1.55l-.124.321-.017 2.464c-.01 1.355-.034 2.48-.054 2.5s-.173.036-.34.036h-.303l-.022-2.545c-.023-2.485-.026-2.552-.123-2.81-.153-.406-.302-.63-.602-.908-.755-.698-1.813-.86-2.697-.413-.294.15-.834.689-.998.998-.257.483-.262.546-.262 3.233v2.468h-.724zm20.972-3.24v-5.75h.682v3.842c0 2.112.015 3.84.034 3.84.018-.001.903-.86 1.966-1.909l1.931-1.907.5.002.5.002-1.931 1.908-1.932 1.908 1.907 1.878 1.907 1.879-.442.032-.442.033-.238-.206c-.13-.113-.892-.86-1.692-1.661l-1.454-1.455-.285.281-.284.282v.66c0 .364-.014.983-.03 1.377l-.03.716h-.667v-5.751m8.34 5.685a3.9 3.9 0 0 1-1.124-.438c-.858-.51-1.399-1.18-1.722-2.138-.27-.8-.23-1.816.104-2.618.448-1.078 1.446-1.961 2.56-2.266.405-.111 1.239-.136 1.689-.05a3.84 3.84 0 0 1 2.228 1.3c.23.279.56.842.515.88-.012.01-.319.187-.681.395-.628.36-2.155 1.238-4.262 2.453-.558.322-.965.584-.965.623 0 .036.148.213.33.393.564.562 1.218.82 2.079.823 1.247.003 2.285-.615 2.787-1.659.113-.235.24-.55.28-.7l.075-.273.366-.193.366-.193-.031.261a3.8 3.8 0 0 1-.389 1.307 3.88 3.88 0 0 1-2.398 2.03c-.403.122-1.409.157-1.806.063m-.994-3.122 2.267-1.304c.675-.389 1.399-.803 1.608-.922s.4-.235.424-.259c.056-.055-.569-.61-.941-.837-.87-.528-2.013-.588-2.913-.154-.8.386-1.388 1.077-1.664 1.956-.114.366-.156 1.075-.084 1.444.05.264.199.673.243.673.01 0 .488-.269 1.06-.597" style="fill:#d1d1d3"/><path d="M132.885 8.611q-.19.16-.509.16a.8.8 0 0 1-.419-.103.8.8 0 0 1-.287-.228.75.75 0 0 1-.178-.385q-.05-.237-.05-.909t.05-.916a.75.75 0 0 1 .178-.378.9.9 0 0 1 .287-.234.96.96 0 0 1 .847 0q.173.093.275.234.135.147.185.378.046.244.046.916 0 .723-.065.953l-.531-.422-.41.472zm.566.454.575.462.409-.475-.6-.478a1.2 1.2 0 0 0 .135-.438q.031-.28.031-.99 0-.793-.041-1.063a1 1 0 0 0-.159-.434 1.53 1.53 0 0 0-.519-.563q-.362-.25-.906-.256-.537.006-.897.256-.364.248-.531.563a1.3 1.3 0 0 0-.153.434q-.047.27-.047 1.063 0 .782.047 1.056.026.148.062.244.042.095.091.197.167.316.531.556.36.25.897.262.672-.012 1.075-.396m1.292-.729q.007.55.36.832.326.287.728.293.519 0 .84-.384h.013v.347h.653V6.18h-.653v1.931q0 .33-.181.513a.6.6 0 0 1-.46.184.62.62 0 0 1-.462-.184q-.185-.183-.185-.513V6.18h-.653zm3.457 1.088h.653V6.18h-.653zm0-3.903h.653v-.653h-.653zm3.418 2.95a.8.8 0 0 1-.659.337q-.83.017-.844-1.003.013-1.024.844-1.012a.82.82 0 0 1 .659.34l.482-.428a1.7 1.7 0 0 0-.5-.409 1.5 1.5 0 0 0-.666-.156 1.44 1.44 0 0 0-1.009.384q-.45.397-.463 1.281.013.876.463 1.266.435.39 1.009.39.378-.006.666-.165.287-.153.5-.397zm.938.953h.653V8.49l.512-.582.863 1.516h.819l-1.272-1.978 1.119-1.266h-.782l-1.247 1.522h-.012V4.868h-.653zm4.975-1.106-.453.518q.729.625 1.74.625 1.566-.018 1.6-1.325 0-.484-.303-.85-.305-.37-.947-.459a13 13 0 0 1-.512-.072q-.338-.061-.491-.225a.5.5 0 0 1-.153-.356q.006-.327.228-.494a.86.86 0 0 1 .531-.159q.616.012 1.129.35l.384-.569q-.627-.453-1.478-.472-.705.006-1.091.369-.397.366-.397.962 0 .498.316.844.306.339.894.435l.603.084q.6.103.594.612-.012.623-.9.635a2 2 0 0 1-1.294-.453m6.128 1.106h.578l1.034-3.244h-.69l-.619 2.272h-.012l-.738-2.272h-.472l-.737 2.272h-.013l-.622-2.272h-.69l1.037 3.244h.575l.678-2.272h.013zm3.748 0h.653V7.208q-.005-.593-.371-.837-.366-.237-.979-.231-.724-.012-1.096.475l.512.39a.47.47 0 0 1 .231-.2q.142-.05.385-.05.672-.012.665.416v.34h-.903q-.519.008-.787.282a.92.92 0 0 0-.269.678q0 .429.309.703.295.281.838.287.331 0 .519-.081a.54.54 0 0 0 .281-.244h.012zm0-1.141q0 .367-.153.469-.168.103-.578.097-.325 0-.466-.128a.35.35 0 0 1-.146-.281q-.006-.379.562-.391h.781zm1.5 2.453h.653V9.077q.18.176.391.275a.9.9 0 0 0 .447.109q.303-.006.519-.121a1 1 0 0 0 .353-.3.9.9 0 0 0 .184-.41q.048-.249.047-.825 0-.59-.047-.837a.85.85 0 0 0-.184-.403q-.275-.41-.872-.425a1.12 1.12 0 0 0-.838.378V6.18h-.653zm1.294-1.928a.6.6 0 0 1-.347-.093.54.54 0 0 1-.197-.238 1.2 1.2 0 0 1-.078-.328 3.3 3.3 0 0 1 0-.709q.02-.172.078-.319a.54.54 0 0 1 .197-.238.6.6 0 0 1 .347-.09q.231 0 .366.078.135.084.19.231.064.142.085.325a12 12 0 0 1 0 .738 1.2 1.2 0 0 1-.085.325.5.5 0 0 1-.19.231.67.67 0 0 1-.366.087m3.617.616h.691V8.036l.8-.84 1.241 2.228h.818l-1.612-2.759 1.459-1.797h-.819l-1.875 2.347h-.012V4.868h-.691zm3.991 0h.653V6.18h-.653zm0-3.903h.653v-.653h-.653zm1.558.659h-.325v.497h.325v1.947q0 .384.225.587a.77.77 0 0 0 .562.213h.341v-.616h-.244q-.237.008-.231-.24V6.677h.475V6.18h-.475v-.987h-.653zm3.334 3.244h.691V4.868h-.691zm1.589 0h.653V7.493q0-.34.185-.519a.63.63 0 0 1 .462-.181.62.62 0 0 1 .46.181q.181.178.181.519v1.931h.653V7.268q-.015-.556-.347-.844a1.1 1.1 0 0 0-.737-.284q-.522 0-.844.384h-.013V6.18h-.653zm3.535-.991-.457.447q.636.582 1.428.581.585-.006.96-.268a.84.84 0 0 0 .384-.728q0-.403-.209-.666-.225-.269-.731-.306l-.538-.041q-.237-.024-.331-.116-.102-.08-.097-.19 0-.171.128-.281.123-.11.428-.11.27 0 .475.078.21.088.397.222l.403-.472a2 2 0 0 0-.537-.328 2 2 0 0 0-.335-.087 3 3 0 0 0-.403-.028q-.519 0-.856.25-.347.25-.353.75.006.415.269.646.257.239.665.275l.575.05a.57.57 0 0 1 .291.079q.106.069.106.243a.34.34 0 0 1-.178.307.86.86 0 0 1-.459.109q-.629 0-1.025-.416m3.01-2.253h-.325v.497h.325v1.947q0 .384.225.587a.77.77 0 0 0 .563.213h.341v-.616h-.244q-.237.008-.231-.24V6.677h.475V6.18h-.475v-.987h-.654zm3.447 3.244h.653V7.208q-.005-.593-.371-.837-.366-.237-.979-.231-.724-.012-1.096.475l.512.39a.47.47 0 0 1 .231-.2q.142-.05.385-.05.672-.012.665.416v.34h-.903q-.519.008-.787.282a.92.92 0 0 0-.269.678q0 .429.309.703.295.281.838.287.331 0 .519-.081a.54.54 0 0 0 .281-.244h.012zm0-1.141q0 .367-.153.469-.168.103-.578.097-.325 0-.466-.128a.35.35 0 0 1-.146-.281q-.006-.379.562-.391h.781zm1.493.353q0 .43.243.61a.94.94 0 0 0 .588.178h.29v-.616h-.225q-.243 0-.243-.222V4.868h-.653zm1.656 0q0 .43.244.61.231.178.587.178h.291v-.616h-.225q-.244 0-.244-.222V4.868h-.653zm4.164-.587v-.538q-.006-.64-.397-1.006a1.35 1.35 0 0 0-.941-.365q-.231 0-.468.084-.24.084-.435.275a1.4 1.4 0 0 0-.312.512 2.3 2.3 0 0 0-.122.8q0 .501.14.813.13.326.335.506.106.088.228.147.117.07.237.109.245.075.5.075.672.008 1.169-.525l-.472-.403q-.312.316-.709.316a.75.75 0 0 1-.55-.206q-.225-.203-.225-.594zm-2.022-.538q.02-.378.203-.571a.66.66 0 0 1 .481-.185.66.66 0 0 1 .482.185q.19.193.203.571zm4.642 1.572v.341h.653V4.868h-.653v1.656a1.9 1.9 0 0 0-.378-.281 1.05 1.05 0 0 0-.462-.103q-.594.015-.869.425a.8.8 0 0 0-.178.403q-.053.248-.053.831 0 .576.053.825a.8.8 0 0 0 .178.416 1.1 1.1 0 0 0 .869.421 1.1 1.1 0 0 0 .84-.378m-.64-2.29q.231 0 .365.09a.46.46 0 0 1 .185.238q.063.147.084.319a10 10 0 0 1 0 .709q-.021.181-.084.328a.46.46 0 0 1-.185.238.63.63 0 0 1-.365.093q-.231 0-.354-.087a.54.54 0 0 1-.196-.231 1.2 1.2 0 0 1-.079-.332 3.892 3.892 0 0 1 0-.737q.02-.171.079-.319a.5.5 0 0 1 .196-.231.66.66 0 0 1 .354-.078" style="white-space:pre"/><path stroke-width=".265" d="M0 15h230" style="paint-order:fill;stroke-dasharray:2px;stroke:red"/></svg>