<svg xmlns="http://www.w3.org/2000/svg" viewBox="0 0 324 200"><path fill="#00112B" stroke="#06F" stroke-dasharray="1.548,0.258" stroke-width=".258" d="M160 10v190"/><path stroke="red" stroke-dasharray="1.59,0.265" stroke-width=".265" d="M150 0v190"/><g fill="red"><path d="M143.064 193.622h.518l.656 1.75.66-1.75h.519v2.572h-.34v-2.258l-.663 1.764h-.35l-.663-1.764v2.258h-.337zM146.107 193.622h.348v2.572h-.348zM148.367 194.988q.112.039.217.162.108.125.214.341l.353.703h-.374l-.329-.66q-.127-.258-.248-.342a.55.55 0 0 0-.325-.085h-.38v1.087h-.347v-2.572h.785q.442 0 .658.185.217.184.217.556a.7.7 0 0 1-.113.403.58.58 0 0 1-.328.222m-.871-1.08v.913h.437q.252 0 .38-.115.128-.117.128-.343 0-.225-.129-.34-.127-.114-.379-.115zM150.818 194.988q.112.039.217.162.108.125.214.341l.353.703h-.374l-.329-.66q-.127-.258-.248-.342a.55.55 0 0 0-.325-.085h-.38v1.087h-.347v-2.572h.785q.442 0 .658.185.217.184.217.556a.7.7 0 0 1-.113.403.58.58 0 0 1-.328.222m-.871-1.08v.913h.437q.252 0 .38-.115.128-.117.129-.343 0-.225-.13-.34-.127-.114-.379-.115zM153.094 193.858a.73.73 0 0 0-.603.283q-.222.282-.222.77 0 .486.222.768a.73.73 0 0 0 .603.283.72.72 0 0 0 .6-.283q.222-.282.222-.768 0-.488-.223-.77a.72.72 0 0 0-.6-.283m0-.282q.54 0 .865.363.324.362.324.972 0 .609-.324.971t-.865.362q-.543 0-.868-.362-.324-.361-.324-.971t.324-.972q.325-.363.868-.363M156.046 194.988q.112.039.217.162.108.125.214.341l.353.703h-.374l-.329-.66q-.127-.258-.248-.342a.55.55 0 0 0-.325-.085h-.38v1.087h-.347v-2.572h.785q.442 0 .658.185.217.184.217.556a.7.7 0 0 1-.113.403.58.58 0 0 1-.328.222m-.871-1.08v.913h.437q.252 0 .38-.115.128-.117.128-.343 0-.225-.129-.34-.127-.114-.379-.115z"/></g><g fill="#06F"><path d="M157.696 3.74v.368a1.2 1.2 0 0 0-.375-.245 1.1 1.1 0 0 0-.422-.08q-.442 0-.675.27-.235.268-.235.778t.235.779q.233.27.675.269.225 0 .422-.081.2-.081.375-.245v.364a1.4 1.4 0 0 1-.818.248q-.584 0-.92-.357-.335-.358-.335-.977 0-.62.335-.976.335-.36.92-.359.231 0 .434.062.205.06.384.183M159.278 3.779a.73.73 0 0 0-.603.282q-.222.283-.222.77 0 .486.222.769a.73.73 0 0 0 .603.282.72.72 0 0 0 .6-.282q.22-.283.221-.769 0-.487-.222-.77a.72.72 0 0 0-.6-.282m0-.283q.54 0 .864.364.324.362.324.971t-.324.972-.864.362q-.543 0-.868-.362-.324-.361-.324-.972 0-.61.324-.971.325-.364.868-.364M161.359 3.829v.966h.437q.243 0 .376-.126.132-.125.132-.358 0-.231-.132-.356-.133-.126-.376-.126zm-.348-.286h.785q.432 0 .653.196.222.195.222.572 0 .381-.222.575-.22.195-.653.195h-.437v1.034h-.348zM162.707 3.543h.374l.713 1.057.708-1.057h.374l-.91 1.347v1.225h-.35V4.89z"/></g><g fill="#575757"><rect width="12" height="189" rx="4"/><path d="M6 0h6v189H6z"/></g><g fill="#575757" transform="translate(312)"><rect width="12" height="189" rx="4"/><path d="M0 0h6v189H0z"/></g><g style="display:inline"><path d="M279.558 186.861h.782v10.431h-.782z" style="stroke-width:.154526;fill:#d1d1d3" transform="translate(-2 -7)"/><path d="M287.287 193.047q0 .991-.157 1.472-.147.48-.59.775-.43.285-.941.285-.5 0-.932-.157-.422-.157-1.001-.658l.451-.667q.57.412.864.55.294.137.569.137.284 0 .52-.206.235-.206.294-.53.069-.334.069-1.03v-4.799h.854zM291.34 195.402h-.835v-6.359h-1.167l.51-.824h1.491zM241.056 196.496c.002-.858.014-2.243.027-3.078l.023-1.518.109-.317a2.8 2.8 0 0 1 1.429-1.647 2.85 2.85 0 0 1 2.592.06 2.86 2.86 0 0 1 1.358 1.804c.06.253.069.371.056.751-.013.394-.028.489-.121.763a2.84 2.84 0 0 1-1.99 1.86c-.35.09-1.018.084-1.356-.012a2.8 2.8 0 0 1-.833-.376 2 2 0 0 0-.213-.133c-.009 0-.017.766-.017 1.702v1.701h-1.0670000000000002zm3.206-2.359c.948-.201 1.551-1.165 1.309-2.096a1.74 1.74 0 0 0-1.139-1.23c-.286-.098-.794-.106-1.077-.018a1.72 1.72 0 0 0-1.201 1.668c.003 1.118 1 1.911 2.108 1.676m-6.936 1.116a2.75 2.75 0 0 1-1.59-.762 2.83 2.83 0 0 1-.721-2.951c.151-.449.328-.728.696-1.091.515-.509 1.062-.753 1.772-.791.622-.032 1.176.106 1.636.408l.266.175v-.435l.154.021c.085.012.333.021.551.021h.396v5.372h-1.101v-.561l-.226.151a2.3 2.3 0 0 1-.849.372 2.8 2.8 0 0 1-.984.071m.892-1.161c.313-.109.473-.207.686-.421.537-.537.647-1.358.274-2.06-.269-.507-.924-.894-1.512-.894a2.2 2.2 0 0 0-.817.188c-.229.111-.596.471-.71.697a1.88 1.88 0 0 0 0 1.697c.187.369.68.738 1.119.838.268.062.715.04.96-.045m20.787 1.16a2.86 2.86 0 0 1-2.391-2.19c-.081-.338-.074-.923.017-1.277a2.84 2.84 0 0 1 1.763-1.969c.767-.279 1.673-.202 2.36.201.283.166.472.318.726.582l.192.2v-.492l.001-.492h.5v5.438h-.5l-.001-.575-.001-.576-.157.182a3.3 3.3 0 0 1-.919.702c-.465.224-1.109.332-1.589.266zm1.06-.608c1.252-.443 1.903-1.816 1.441-3.037-.308-.814-1.131-1.399-2.036-1.448-.419-.022-.727.044-1.132.243-.534.264-.997.795-1.175 1.348-.099.307-.121.849-.048 1.178.186.836.891 1.568 1.706 1.773.32.081.936.052 1.244-.057m12.918.615c-.045-.015-.044-2.922.001-3.201.208-1.282 1.253-2.296 2.469-2.397l.266-.022v.129c.001.072.01.187.021.256l.021.125h-.129a2.2 2.2 0 0 0-.839.221c-.474.239-.989.769-1.144 1.177s-.165.552-.165 2.174c0 .843-.012 1.533-.025 1.534a4 4 0 0 1-.476.004m-47.995-.055c-.536-.085-1.418-.381-1.418-.475 0-.068.296-.747.354-.813.043-.049.071-.045.314.041.35.124 1.078.229 1.584.228.656 0 1.087-.13 1.331-.401.138-.152.152-.26.053-.4-.141-.197-.437-.287-1.368-.417-.927-.129-1.543-.368-1.954-.756a1.17 1.17 0 0 1-.378-1.065c.108-.683.654-1.173 1.582-1.419.301-.08.393-.089.951-.091.46-.002.701.013.95.058.531.097 1.218.334 1.218.42 0 .082-.348.869-.384.869a.7.7 0 0 1-.165-.052c-.204-.085-.707-.178-1.181-.218-.488-.041-1.018-.006-1.336.088-.337.1-.506.351-.39.576.129.251.494.395 1.364.541.781.132 1.021.187 1.296.299.323.131.524.258.702.44.515.529.476 1.309-.095 1.876-.298.297-.865.57-1.39.671-.322.061-1.257.062-1.64 0m3.903-1.36c.023-1.803.025-1.827.166-2.248.361-1.08 1.086-1.701 2.216-1.899 1.412-.247 2.712.585 3.122 2l.085.294v3.263h-1.034l-.001-1.527c-.001-1.491-.002-1.531-.076-1.745-.257-.756-.941-1.266-1.697-1.266-.475 0-.787.123-1.122.445-.298.286-.451.53-.54.86-.073.272-.074.299-.056 1.754l.019 1.479h-1.1zm18.722-.434c.02-1.944.029-2.058.186-2.425.103-.24.349-.586.547-.767.387-.353.844-.532 1.432-.561.434-.021.746.048 1.132.252.277.145.649.483.813.737.098.153.122.173.153.129.363-.516.581-.715.992-.908 1.197-.561 2.618.004 3.035 1.205.158.455.164.547.164 2.415v1.767h-.534v-1.829c0-1.999.002-1.975-.2-2.375-.326-.645-1.121-1.011-1.856-.857-.607.128-1.043.515-1.283 1.138l-.091.236-.012 1.808c-.008.995-.025 1.82-.04 1.835s-.127.027-.249.027h-.223l-.016-1.869c-.017-1.824-.019-1.873-.091-2.063a1.53 1.53 0 0 0-.442-.666c-.553-.512-1.33-.631-1.979-.302-.216.109-.612.505-.733.732-.188.354-.192.401-.192 2.373v1.812h-.531zm15.394-2.377v-4.221h.5v2.82c0 1.55.012 2.818.025 2.818.014-.001.663-.631 1.443-1.401l1.418-1.399.367.001.367.001-1.418 1.401-1.418 1.4 1.4 1.379 1.4 1.379-.324.024-.325.024-.174-.151a57 57 0 0 1-1.242-1.22l-1.068-1.068-.209.207-.208.207v.485c0 .266-.01.721-.022 1.01l-.022.525h-.49v-4.221m6.122 4.172a2.8 2.8 0 0 1-.825-.321c-.63-.374-1.027-.867-1.264-1.57a2.87 2.87 0 0 1 .076-1.921 2.94 2.94 0 0 1 1.88-1.664c.296-.081.909-.099 1.239-.037.64.121 1.232.466 1.635.954.17.206.412.619.378.646a2720.727 2720.727 0 0 0-3.628 2.091c-.41.237-.709.429-.709.457 0 .027.109.157.242.289.415.413.895.602 1.527.604.916.002 1.677-.451 2.046-1.217a4 4 0 0 0 .206-.515l.055-.2.268-.141.268-.142-.022.192a2.8 2.8 0 0 1-.286.959 2.84 2.84 0 0 1-1.76 1.49c-.296.089-1.034.115-1.326.046m-.73-2.292 1.665-.957c.495-.285 1.026-.589 1.18-.676s.293-.173.311-.19c.041-.041-.418-.448-.691-.615a2.3 2.3 0 0 0-2.138-.113 2.34 2.34 0 0 0-1.221 1.435c-.085.269-.115.79-.063 1.061.038.194.147.494.179.494.008 0 .358-.198.778-.439" style="fill:#d1d1d3" transform="translate(-2 -7)"/></g></svg>