<svg xmlns="http://www.w3.org/2000/svg" viewBox="0 0 334 364"><path d="M251.646 7.963q-.182.16-.487.159a.75.75 0 0 1-.402-.102.8.8 0 0 1-.274-.227.76.76 0 0 1-.171-.383q-.048-.236-.048-.905 0-.668.048-.911a.76.76 0 0 1 .171-.377.8.8 0 0 1 .274-.233.9.9 0 0 1 .402-.096.9.9 0 0 1 .41.096q.165.093.263.233a.8.8 0 0 1 .177.377q.044.242.044.911 0 .719-.062.949l-.508-.421-.393.471zm.542.452.551.46.391-.473-.574-.476a1.2 1.2 0 0 0 .129-.435q.03-.28.03-.986 0-.79-.039-1.058a1.1 1.1 0 0 0-.153-.432 1.5 1.5 0 0 0-.496-.56q-.347-.249-.868-.255-.514.006-.859.255a1.57 1.57 0 0 0-.509.56 1.3 1.3 0 0 0-.146.432q-.045.268-.045 1.058 0 .778.045 1.051.023.147.06.243.038.094.086.196.16.314.509.553.345.25.859.261.643-.012 1.029-.394m1.237-.726q.007.548.345.829.311.285.697.291a.98.98 0 0 0 .804-.382h.013v.345h.625V5.544h-.625v1.922q0 .329-.173.51a.58.58 0 0 1-.441.183.58.58 0 0 1-.442-.183q-.177-.181-.177-.51V5.544h-.626zm3.311 1.083h.625V5.544h-.625zm0-3.884h.625v-.65h-.625zm3.273 2.936a.75.75 0 0 1-.631.335q-.795.017-.808-.998.013-1.02.808-1.007a.77.77 0 0 1 .631.338l.461-.426a1.6 1.6 0 0 0-.478-.407 1.4 1.4 0 0 0-.638-.155 1.35 1.35 0 0 0-.966.382q-.431.396-.444 1.275.013.871.444 1.26a1.37 1.37 0 0 0 1.604.224 1.7 1.7 0 0 0 .478-.395zm.898.948h.625v-.929l.49-.58.827 1.509h.784l-1.218-1.968 1.072-1.26h-.749l-1.194 1.514h-.012v-2.82h-.625zm4.764-1.1-.434.515q.697.622 1.666.622 1.5-.018 1.532-1.318a1.32 1.32 0 0 0-.29-.846q-.293-.37-.906-.458a10 10 0 0 1-.49-.071q-.325-.062-.471-.224a.5.5 0 0 1-.147-.355q.007-.325.219-.491a.8.8 0 0 1 .509-.158q.59.012 1.081.348l.367-.566q-.601-.451-1.415-.47-.676.006-1.044.367-.382.365-.381.958 0 .495.302.84.293.337.857.433l.577.083q.575.103.569.61-.013.62-.862.631a1.87 1.87 0 0 1-1.239-.45m5.868 1.1h.554l.989-3.228h-.66l-.593 2.261h-.011l-.707-2.261h-.452l-.705 2.261h-.014l-.595-2.261h-.661l.993 3.228h.551l.649-2.261h.012zm3.589 0h.625V6.567q-.006-.59-.355-.834-.35-.235-.937-.229-.695-.012-1.05.472l.49.389a.46.46 0 0 1 .222-.199q.134-.05.368-.05.644-.012.637.414v.338h-.865q-.497.008-.753.281a.94.94 0 0 0-.258.675.91.91 0 0 0 .296.699q.28.28.803.286.317 0 .496-.08a.53.53 0 0 0 .27-.243h.011zm0-1.135q0 .365-.147.467-.161.102-.553.096-.31 0-.446-.128a.35.35 0 0 1-.14-.279q-.007-.377.538-.389h.748zm1.436 2.441h.626V8.427q.171.175.374.274a.85.85 0 0 0 .428.108q.29-.005.497-.12a.96.96 0 0 0 .338-.299.9.9 0 0 0 .176-.408q.046-.248.046-.821 0-.587-.046-.833a.85.85 0 0 0-.176-.401q-.263-.408-.835-.423-.491.015-.802.376v-.336h-.626zm1.24-1.919a.54.54 0 0 1-.333-.092.54.54 0 0 1-.188-.237 1.2 1.2 0 0 1-.075-.326 3.3 3.3 0 0 1 0-.706q.018-.171.075-.318a.54.54 0 0 1 .188-.237.56.56 0 0 1 .333-.089q.22 0 .35.077a.46.46 0 0 1 .182.23q.06.141.081.324a12 12 0 0 1 0 .734q-.02.178-.081.324a.5.5 0 0 1-.182.229.6.6 0 0 1-.35.087m3.463.613h.661V7.391l.767-.836 1.188 2.217h.783l-1.544-2.746 1.398-1.788h-.784l-1.795 2.336h-.013V4.238h-.661zm3.822 0h.625V5.544h-.625zm0-3.884h.625v-.65h-.625zm1.492.656h-.312v.494h.312v1.938q0 .383.215.584a.72.72 0 0 0 .538.212h.327v-.613h-.234q-.227.007-.221-.238V6.038h.455v-.494h-.455v-.983h-.625zm3.193 3.228h.661V4.238h-.661zm1.521 0h.626V6.85q0-.339.177-.516a.59.59 0 0 1 .442-.18q.27 0 .441.18.172.177.172.516v1.922h.626V6.626q-.015-.554-.333-.839a1.04 1.04 0 0 0-.706-.283.99.99 0 0 0-.807.382h-.012v-.342h-.626zm3.385-.986-.437.445q.607.579 1.367.578.56-.005.919-.266a.85.85 0 0 0 .367-.725q0-.402-.199-.663-.216-.267-.701-.305l-.514-.04q-.227-.024-.318-.116-.098-.08-.092-.189 0-.17.122-.28.117-.108.41-.109.258 0 .455.078.201.087.38.221l.386-.47a1.8 1.8 0 0 0-.514-.327 2 2 0 0 0-.321-.086 2.5 2.5 0 0 0-.386-.028q-.496 0-.82.249-.332.25-.338.746.007.414.258.643.245.238.636.274l.552.05q.173.006.278.078.102.068.102.242a.34.34 0 0 1-.171.306.8.8 0 0 1-.439.108q-.603 0-.982-.414m2.883-2.242h-.312v.494h.312v1.938q0 .383.214.584a.73.73 0 0 0 .539.212h.327v-.613h-.233q-.229.007-.222-.238V6.038h.455v-.494h-.455v-.983h-.625zm3.3 3.228h.626V6.567q-.006-.59-.356-.834-.35-.235-.937-.229-.695-.012-1.05.472l.491.389a.46.46 0 0 1 .22-.199 1.1 1.1 0 0 1 .37-.05q.643-.012.636.414v.338h-.864q-.498.008-.754.281a.93.93 0 0 0-.258.675q0 .426.296.699.282.28.802.286.318 0 .498-.08a.53.53 0 0 0 .268-.243h.012zm0-1.135q0 .365-.146.467-.162.102-.553.096-.313 0-.447-.128a.35.35 0 0 1-.14-.279q-.005-.377.538-.389h.748zm1.429.351q.001.428.233.607a.88.88 0 0 0 .564.177h.277v-.613h-.215q-.233 0-.233-.221v-3.7h-.626zm1.586 0q0 .428.234.607a.87.87 0 0 0 .562.177h.279v-.613h-.215q-.235 0-.234-.221v-3.7h-.626zm3.988-.584v-.536q-.005-.636-.38-1.001a1.27 1.27 0 0 0-.901-.363q-.222 0-.449.083a1.1 1.1 0 0 0-.416.274 1.4 1.4 0 0 0-.299.509 2.4 2.4 0 0 0-.117.797q0 .498.134.809.125.325.321.504.102.087.218.146.112.069.227.108.235.075.479.075.645.008 1.12-.522l-.452-.401q-.3.314-.679.314a.7.7 0 0 1-.527-.205q-.215-.201-.215-.591zm-1.936-.536q.017-.376.194-.568a.62.62 0 0 1 .461-.184.62.62 0 0 1 .461.184q.181.192.195.568zm4.445 1.565v.339H311V4.238h-.625v1.648a1.8 1.8 0 0 0-.363-.28.96.96 0 0 0-.442-.102q-.567.015-.832.423a.8.8 0 0 0-.17.401q-.05.246-.051.827 0 .573.051.821a.83.83 0 0 0 .17.414q.141.186.35.299a1 1 0 0 0 .482.12 1.04 1.04 0 0 0 .805-.376m-.613-2.279a.6.6 0 0 1 .349.089.46.46 0 0 1 .178.237q.058.147.08.318.005.17.006.357 0 .172-.006.349a1.3 1.3 0 0 1-.08.326.46.46 0 0 1-.178.237.58.58 0 0 1-.349.092.57.57 0 0 1-.34-.087.54.54 0 0 1-.187-.229 1.2 1.2 0 0 1-.075-.331 3.854 3.854 0 0 1 0-.733q.018-.171.075-.318a.5.5 0 0 1 .187-.23.63.63 0 0 1 .34-.077" style="white-space:pre"/><path stroke-width=".265" d="M0 15h334" style="paint-order:fill;stroke-dasharray:2px;stroke:red"/><path d="M263.212 337.685c.002-1.169.018-3.056.036-4.193l.032-2.068.147-.432c.349-1.016 1.007-1.775 1.947-2.244 1.088-.543 2.48-.511 3.532.08a3.9 3.9 0 0 1 1.85 2.46c.082.344.094.505.077 1.022-.018.538-.039.667-.165 1.04a3.87 3.87 0 0 1-2.71 2.533c-.478.124-1.388.116-1.849-.016a3.8 3.8 0 0 1-1.135-.512 2.5 2.5 0 0 0-.29-.181c-.012 0-.022 1.043-.022 2.318v2.318h-1.455zm4.367-3.214c1.292-.273 2.113-1.587 1.784-2.855a2.37 2.37 0 0 0-1.553-1.676c-.388-.133-1.08-.145-1.467-.025-.982.305-1.638 1.217-1.635 2.272.004 1.523 1.362 2.604 2.87 2.285m-9.45 1.52c-.854-.117-1.563-.457-2.165-1.038a3.85 3.85 0 0 1-.982-4.02c.205-.611.447-.991.948-1.487.7-.693 1.446-1.026 2.413-1.077.849-.044 1.603.144 2.23.556l.361.238v-.593l.211.03c.116.015.454.028.75.028h.54v7.318h-1.5v-.764l-.307.206a3.2 3.2 0 0 1-1.157.507c-.46.112-.964.148-1.341.096m1.217-1.582c.425-.148.643-.282.934-.572.732-.732.88-1.85.373-2.808-.367-.69-1.258-1.218-2.06-1.217-.324 0-.82.114-1.112.256-.312.151-.813.642-.968.949a2.56 2.56 0 0 0 0 2.313c.254.502.926 1.005 1.524 1.142.365.083.975.054 1.309-.063m28.319 1.581c-1.597-.22-2.88-1.394-3.259-2.983-.11-.462-.1-1.257.024-1.741a3.87 3.87 0 0 1 2.402-2.681c1.045-.38 2.28-.276 3.216.273.385.226.643.433.988.793l.262.273v-1.341h.682v7.409h-.681l-.001-.784v-.784l-.216.247a4.4 4.4 0 0 1-1.252.956c-.633.306-1.51.453-2.164.363zm1.444-.828c1.705-.604 2.592-2.474 1.962-4.138-.419-1.109-1.54-1.906-2.773-1.972-.57-.031-.991.06-1.542.331-.728.36-1.358 1.083-1.6 1.836-.136.419-.166 1.157-.066 1.604.253 1.14 1.213 2.137 2.324 2.417.435.11 1.275.07 1.695-.078m17.598.838c-.061-.021-.06-3.982.002-4.362.284-1.746 1.706-3.127 3.364-3.265l.362-.03v.177c0 .097.013.253.03.347l.027.17-.176.001c-.316.002-.806.13-1.143.3-.646.326-1.348 1.049-1.558 1.605-.21.555-.226.752-.226 2.961 0 1.148-.015 2.089-.034 2.09a6 6 0 0 1-.648.006m-65.386-.075c-.73-.116-1.932-.52-1.932-.648 0-.092.403-1.017.483-1.108.058-.066.096-.06.427.056.478.17 1.469.312 2.158.311.895 0 1.481-.177 1.814-.545.187-.208.207-.356.071-.546-.19-.268-.594-.391-1.862-.568-1.263-.176-2.104-.501-2.663-1.03-.42-.395-.6-.907-.515-1.45.148-.932.89-1.598 2.155-1.934.41-.11.536-.121 1.295-.124.628-.002.957.018 1.296.08.723.13 1.659.454 1.659.572 0 .111-.474 1.183-.523 1.183a1 1 0 0 1-.225-.07c-.279-.117-.964-.243-1.61-.298-.664-.056-1.386-.008-1.82.12-.458.137-.69.479-.53.785.176.341.672.538 1.857.737 1.065.18 1.392.255 1.766.407.44.18.714.351.956.6.702.72.649 1.783-.128 2.556-.406.404-1.179.776-1.895.913-.439.084-1.712.084-2.234 0zm5.318-1.853c.031-2.456.034-2.489.226-3.062.492-1.472 1.48-2.318 3.018-2.588 1.924-.337 3.695.798 4.253 2.725l.117.4v4.445h-1.41v-2.08c-.001-2.031-.003-2.086-.103-2.377-.351-1.03-1.283-1.725-2.313-1.725-.647 0-1.072.169-1.528.607-.406.39-.615.722-.736 1.171-.1.37-.1.408-.076 2.39l.026 2.014h-1.498zm25.506-.591c.027-2.648.038-2.804.252-3.304a3.6 3.6 0 0 1 .746-1.045c.527-.481 1.15-.725 1.95-.764a2.73 2.73 0 0 1 1.544.342c.377.198.884.659 1.106 1.006.134.208.167.235.21.174.494-.702.79-.973 1.351-1.236 1.63-.764 3.566.005 4.134 1.64.215.622.224.746.224 3.292v2.406h-.727V333.5c0-2.722.002-2.69-.274-3.235-.443-.878-1.526-1.378-2.527-1.167-.828.175-1.422.7-1.749 1.55l-.123.321-.018 2.464c-.01 1.355-.033 2.48-.053 2.5s-.173.036-.34.036h-.303l-.023-2.545c-.022-2.485-.025-2.552-.123-2.81-.153-.406-.301-.63-.602-.908-.754-.698-1.812-.86-2.696-.412-.294.148-.834.688-.999.997-.256.483-.262.547-.262 3.233v2.468h-.724zm20.971-3.239v-5.75h.682v3.84c0 2.113.016 3.841.034 3.84.02 0 .904-.86 1.966-1.908l1.932-1.907.5.002.5.002-1.932 1.908-1.932 1.908 1.907 1.878 1.907 1.879-.442.032-.441.033-.238-.206c-.131-.113-.892-.86-1.692-1.66l-1.454-1.456-.285.282-.284.282v.66c0 .363-.014.983-.03 1.376l-.03.716h-.667v-5.751m8.341 5.684a3.9 3.9 0 0 1-1.125-.438c-.857-.509-1.398-1.18-1.72-2.138-.271-.8-.231-1.816.103-2.618.448-1.078 1.446-1.961 2.56-2.266.404-.11 1.238-.136 1.689-.05a3.84 3.84 0 0 1 2.228 1.3c.23.28.56.842.514.88-.011.01-.318.187-.68.395-.628.36-2.156 1.238-4.262 2.453-.559.322-.966.585-.966.623 0 .036.149.213.33.394.564.561 1.218.82 2.08.822 1.247.003 2.285-.615 2.787-1.659.113-.235.24-.55.28-.7l.075-.273.366-.193.365-.193-.03.261a3.8 3.8 0 0 1-.39 1.307 3.88 3.88 0 0 1-2.397 2.03c-.403.122-1.409.157-1.807.063m-.995-3.122 2.268-1.304 1.608-.922c.21-.118.4-.235.424-.259.055-.055-.57-.61-.942-.836-.87-.529-2.012-.59-2.913-.155-.8.386-1.388 1.077-1.663 1.956-.115.366-.156 1.075-.085 1.444.052.265.2.673.244.673.01 0 .487-.269 1.06-.597" style="fill:#d1d1d3"/></svg>