<svg xmlns="http://www.w3.org/2000/svg" viewBox="0 0 230 250"><path d="M168.42 224.792c.003-1.169.02-3.056.037-4.193l.032-2.068.148-.432c.348-1.016 1.006-1.775 1.947-2.244 1.087-.543 2.48-.511 3.531.08a3.9 3.9 0 0 1 1.85 2.46c.083.344.095.505.077 1.022-.018.538-.038.666-.165 1.04a3.87 3.87 0 0 1-2.71 2.533c-.478.123-1.388.115-1.849-.016a3.8 3.8 0 0 1-1.135-.512 2.5 2.5 0 0 0-.289-.181c-.013 0-.023 1.043-.023 2.318v2.318h-1.455zm4.368-3.214c1.292-.274 2.113-1.587 1.784-2.855a2.37 2.37 0 0 0-1.553-1.676c-.388-.133-1.08-.145-1.466-.025-.982.305-1.638 1.217-1.636 2.272.004 1.523 1.362 2.604 2.871 2.284m-9.449 1.52c-.855-.118-1.563-.457-2.165-1.038a3.85 3.85 0 0 1-.983-4.02c.205-.612.447-.992.948-1.487.701-.693 1.446-1.026 2.414-1.077.848-.044 1.603.144 2.229.556l.362.238v-.593l.21.03c.117.015.454.028.75.028h.54v7.318h-1.5v-.764l-.307.206a3.2 3.2 0 0 1-1.157.507c-.46.112-.964.148-1.34.096m1.216-1.582c.426-.148.644-.282.934-.572.732-.733.88-1.851.373-2.808-.366-.69-1.258-1.218-2.06-1.218-.324 0-.82.115-1.112.257-.312.151-.812.642-.968.949a2.56 2.56 0 0 0 0 2.313c.254.502.926 1.005 1.525 1.141.364.084.974.054 1.308-.062m28.319 1.581c-1.596-.22-2.88-1.394-3.258-2.983-.11-.462-.1-1.258.023-1.741a3.87 3.87 0 0 1 2.402-2.681c1.045-.381 2.28-.276 3.216.273.385.226.643.433.989.793l.261.273v-.67l.001-.671h.682v7.409h-.682v-.784l-.002-.784-.214.247a4.4 4.4 0 0 1-1.253.956c-.633.306-1.51.453-2.164.363zm1.444-.828c1.706-.605 2.592-2.474 1.963-4.139-.42-1.108-1.54-1.905-2.774-1.971-.57-.031-.99.06-1.542.331-.727.36-1.358 1.083-1.6 1.836-.135.419-.165 1.157-.066 1.604.254 1.14 1.213 2.137 2.324 2.417.436.11 1.275.07 1.695-.078m17.599.837c-.062-.02-.06-3.981.002-4.361.283-1.746 1.706-3.127 3.363-3.265l.362-.03v.176c.001.098.014.254.03.348l.028.17-.177.001c-.315.002-.805.13-1.143.3-.646.326-1.347 1.049-1.558 1.605-.21.555-.225.752-.225 2.96 0 1.15-.016 2.09-.034 2.09a6 6 0 0 1-.648.007m-65.387-.074c-.73-.116-1.932-.52-1.932-.648 0-.092.403-1.017.483-1.108.059-.066.097-.061.427.056.478.169 1.47.312 2.158.311.895 0 1.481-.177 1.814-.546.188-.207.207-.355.072-.545-.191-.268-.595-.391-1.863-.568-1.263-.176-2.103-.501-2.663-1.03-.42-.396-.6-.907-.514-1.45.147-.932.89-1.599 2.155-1.935.41-.109.535-.12 1.295-.123.627-.002.956.018 1.295.08.723.13 1.66.454 1.66.571 0 .112-.475 1.184-.524 1.184a1 1 0 0 1-.225-.07c-.278-.117-.964-.244-1.61-.298-.663-.056-1.386-.008-1.819.12-.458.137-.69.479-.531.785.176.341.672.538 1.857.737 1.065.18 1.392.255 1.766.407.44.179.715.351.957.6.701.72.648 1.783-.129 2.556-.406.404-1.179.776-1.894.913-.44.084-1.712.084-2.235 0m5.318-1.854c.032-2.455.034-2.488.226-3.061.492-1.472 1.48-2.318 3.019-2.588 1.924-.337 3.694.798 4.253 2.725l.116.4v4.445h-1.409l-.001-2.08c0-2.032-.003-2.086-.103-2.377-.35-1.03-1.283-1.725-2.312-1.725-.648 0-1.072.168-1.529.607-.405.39-.614.722-.735 1.171-.1.37-.102.408-.077 2.39l.026 2.014h-1.498zm25.506-.59c.027-2.648.039-2.804.253-3.304a3.6 3.6 0 0 1 .746-1.045c.526-.481 1.15-.725 1.95-.764a2.73 2.73 0 0 1 1.543.342c.377.198.884.659 1.107 1.005.133.209.166.236.208.175.495-.702.791-.973 1.353-1.236 1.63-.764 3.565.005 4.133 1.64.216.621.224.746.224 3.292v2.406h-.727v-2.492c0-2.722.002-2.69-.273-3.235-.444-.878-1.527-1.378-2.528-1.167-.828.174-1.421.7-1.748 1.55l-.124.321-.017 2.464c-.01 1.355-.034 2.48-.054 2.5s-.173.036-.34.036h-.303l-.022-2.545c-.023-2.485-.026-2.552-.123-2.81-.153-.406-.302-.63-.602-.908-.755-.698-1.813-.86-2.697-.413-.294.15-.834.689-.998.998-.257.483-.262.546-.262 3.233v2.468h-.724zm20.972-3.24v-5.75h.682v3.842c0 2.112.015 3.84.034 3.84.018-.001.903-.86 1.966-1.909l1.931-1.907.5.002.5.002-1.931 1.908-1.932 1.908 1.907 1.878 1.907 1.879-.442.032-.442.033-.238-.206c-.13-.113-.892-.86-1.692-1.661l-1.454-1.455-.285.281-.284.282v.66c0 .364-.014.983-.03 1.377l-.03.716h-.667v-5.751m8.34 5.685a3.9 3.9 0 0 1-1.124-.438c-.858-.51-1.399-1.18-1.722-2.138-.27-.8-.23-1.816.104-2.618.448-1.078 1.446-1.961 2.56-2.266.405-.111 1.239-.136 1.689-.05a3.84 3.84 0 0 1 2.228 1.3c.23.279.56.842.515.88-.012.01-.319.187-.681.395-.628.36-2.155 1.238-4.262 2.453-.558.322-.965.584-.965.623 0 .036.148.213.33.393.564.562 1.218.82 2.079.823 1.247.003 2.285-.615 2.787-1.659.113-.235.24-.55.28-.7l.075-.273.366-.193.366-.193-.031.261a3.8 3.8 0 0 1-.389 1.307 3.88 3.88 0 0 1-2.398 2.03c-.403.122-1.409.157-1.806.063m-.994-3.122 2.267-1.304c.675-.389 1.399-.803 1.608-.922s.4-.235.424-.259c.056-.055-.569-.61-.941-.837-.87-.528-2.013-.588-2.913-.154-.8.386-1.388 1.077-1.664 1.956-.114.366-.156 1.075-.084 1.444.05.264.199.673.243.673.01 0 .488-.269 1.06-.597" style="fill:#d1d1d3"/></svg>