<svg xmlns="http://www.w3.org/2000/svg" width="988" height="1026" fill="none"><path fill="#444646" d="M23.508 47.398h35.205v238.804H23.508z"/><path fill="#CFD2D3" d="m529.093 987.289-26.859 26.721h7.693l26.725-26.721zM544.207 987.289l-26.724 26.721h7.558l26.86-26.721zM559.461 987.289l-26.725 26.721h7.694l26.724-26.721zM574.849 987.289l-26.86 26.721h7.694l26.724-26.721zM590.098 987.289l-26.724 26.721h7.558l26.86-26.721zM605.487 987.289l-26.86 26.721h7.693l26.725-26.721zM620.74 987.289l-26.725 26.721h7.559l26.859-26.721zM635.989 987.289l-26.725 26.721h7.559l26.859-26.721zM651.377 987.289l-26.859 26.721h7.693l26.725-26.721zM666.631 987.289l-26.86 26.721h7.693l26.86-26.721zM375.627 987.289l-26.86 26.721h7.694l26.859-26.721zM390.745 987.289l-26.724 26.721h7.558l26.86-26.721zM406.133 987.289l-26.86 26.721h7.694l26.724-26.721zM421.382 987.289l-26.724 26.721h7.558l26.86-26.721zM436.636 987.289l-26.725 26.721h7.694l26.724-26.721zM452.024 987.289l-26.86 26.721h7.694l26.724-26.721zM467.273 987.289l-26.725 26.721h7.559l26.859-26.721zM482.526 987.289l-26.724 26.721h7.693l26.725-26.721zM497.915 987.289l-26.86 26.721h7.694l26.724-26.721zM513.164 987.289l-26.725 26.721h7.558l26.86-26.721zM662.848 1014.02l15.252-15.256v-7.694l-22.945 22.95zM678.102 1014.02v-7.56l-7.693 7.56zM358.352 987.289 343.1 1002.54v7.69l22.945-22.941zM48.455 139.256v-24.565H30.503v4.859h13.498c.27 0 .54.27.54.54v6.479c0 .27-.27.54-.54.54H30.503v4.859h13.498c.27 0 .54.27.54.54v6.478c0 .27-.27.54-.54.54H30.503v4.859h12.958c2.834-.405 4.994-2.429 4.994-5.129M34.958 190.278c-.27 0-.54-.27-.54-.54v-11.607c0-.27.27-.54.54-.54h13.497v-4.454H35.497c-2.699 0-4.994 2.159-4.994 4.859v12.012c0 2.7 2.16 4.859 4.994 4.859h12.958v-4.454H34.958zM48.456 105.513V88.101l-3.915 1.485v15.792c0 .27-.27.54-.54.54h-2.294V91.746c0-2.7-2.16-4.86-4.994-4.86h-1.35c-2.7 0-4.994 2.16-4.994 4.86v18.626h12.958c2.969 0 5.129-2.16 5.129-4.859m-14.038.27V91.881c0-.27.27-.54.54-.54h2.565c.27 0 .54.27.54.54v13.902zM48.455 164.228V152.89h4.454v-4.859H30.503v16.332c0 2.699 2.16 4.859 4.994 4.859h7.964c2.834-.135 4.994-2.295 4.994-4.994m-13.497 0c-.27 0-.54-.27-.54-.54V152.89H44.54v10.798c0 .27-.27.54-.54.54zM37.927 83.246c1.755-.135 3.24-.945 4.319-2.294.945.674 2.16 1.08 3.51 1.214h1.484c3.78-.27 6.614-3.914 6.614-8.233V64.08h-4.05l-1.89-4.994h-17.41v18.221c.27 3.105 2.834 5.67 6.073 5.804.27.135 1.08.135 1.35.135M49.804 64.08v10.528c0 .27-.135.54-.135.945-.404.944-1.35 1.754-2.564 1.754h-.54c-.945-.135-1.62-.675-1.89-1.484-.134-.405-.27-.675-.27-1.08V64.35h5.4zM34.418 75.283V64.08h5.938v11.203c0 1.62-1.35 2.834-2.969 2.834-1.62.135-2.97-1.215-2.97-2.834M53.855 64.074h4.859l-2.025-4.86h-4.724zM34.823 214.976h18.086v-4.859H30.503v18.087l4.32-1.62zM48.456 249.126v-17.411l-3.915 1.484v15.792c0 .27-.27.54-.54.54h-2.294v-14.172c0-2.699-2.16-4.859-4.994-4.859h-1.35c-2.7 0-4.994 2.16-4.994 4.859v18.626h12.958c2.969 0 5.129-2.159 5.129-4.859m-14.038.405v-13.902c0-.27.27-.54.54-.54h2.565c.27 0 .54.27.54.54v13.902zM48.455 274.636v-11.337h4.454v-4.994H30.503v16.331c0 2.7 2.16 4.859 4.994 4.859h7.964c2.834 0 4.994-2.159 4.994-4.859m-13.497 0c-.27 0-.54-.27-.54-.54v-10.797H44.54v10.797c0 .27-.27.54-.54.54zM343.1 987.289v7.694l7.693-7.694z"/></svg>