<svg xmlns="http://www.w3.org/2000/svg" width="180.5mm" height="180.6mm" data-name="Layer 1" viewBox="0 0 511.7 512"><path d="M511 511.3V.8M.8.8v510.5M.8 511.3V.8M511 .8v510.5M.8 511.3H511M.8.8H511" style="fill:none;stroke:#fff;stroke-linecap:round;stroke-linejoin:round;stroke-width:1.5px"/><path d="M277.3 489.1c4.6 0 7.4 2.8 7.4 8.1s-2.9 8.1-7.4 8.1-7.4-2.9-7.4-8.1 3-8.1 7.4-8.1m3.7 8.1c0-3.8-1.5-5.7-3.7-5.7s-3.8 1.9-3.8 5.7 1.3 5.6 3.8 5.6 3.7-1.9 3.7-5.6M293.1 499h-2.5v6h-3.3v-15.7h6.1a7.3 7.3 0 0 1 3.2.6 4.1 4.1 0 0 1 2.6 4 4.4 4.4 0 0 1-3.1 4.3l3.5 6.8H296Zm-.1-2.4c1.5 0 2.7-.7 2.7-2.5a2.4 2.4 0 0 0-2.7-2.5h-2.4v5ZM302 489.3h3.4V505H302ZM311.6 497.2c0 4 1.4 5.6 3.8 5.6s3.4-1.3 3.6-3.5v-.3h-3.7v-2.4h6.8v8.4h-2.6v-2.2h-.1a5 5 0 0 1-4.6 2.5c-4.4 0-6.8-3.1-6.8-7.9s3-8.3 7.4-8.3 6.1 1.7 6.4 4.9h-3.4a2.8 2.8 0 0 0-3-2.5c-2.4 0-3.8 2-3.8 5.7M325.1 489.3h3.4V505h-3.4ZM331.7 489.3h3.7l5 8.5a17 17 0 0 1 1.2 2.3v-10.8h3.1V505h-3.5l-5.3-8.7a12.8 12.8 0 0 1-1.1-2.4h-.1V505h-3ZM356.8 501.5H351l-1.1 3.5h-3.2l5.4-15.7h3.8l5.6 15.7h-3.6Zm-3.5-7.1-1.5 4.6h4.2l-1.5-4.5c-.4-1.4-.6-2.3-.6-2.3a15 15 0 0 1-.6 2.2M363.4 489.3h3.4v13h6.8v2.7h-10.2ZM384 499.6v5.4h-3.4v-15.7h5.5c3.4 0 6 1.4 6 5s-2.8 5.3-6.3 5.3Zm2-2.5a2.5 2.5 0 0 0 2.8-2.7c0-1.9-1.1-2.7-2.8-2.7h-2v5.4ZM400.1 499h-2.4v6h-3.4v-15.7h6.1a7.3 7.3 0 0 1 3.2.6 3.9 3.9 0 0 1 2.6 4 4.5 4.5 0 0 1-3 4.3l3.5 6.8H403Zm-.1-2.4c1.5 0 2.8-.7 2.8-2.5a2.4 2.4 0 0 0-2.7-2.5h-2.4v5ZM408.7 489.3h3.3v9.1a5.6 5.6 0 0 0 .6 3.2 3.6 3.6 0 0 0 5 0c.6-.8.5-2.1.5-3.2v-9.1h3.3v10.2c0 3.9-2.5 5.8-6.4 5.8s-6.3-1.8-6.3-5.8ZM432.4 493.5a2 2 0 0 0-2.3-2c-1.5 0-2.4.8-2.4 1.9s.6 1.7 2.1 1.9l2.4.5c2.8.5 4.1 2 4.1 4.3s-2.3 5.2-6.3 5.2-6.1-1.9-6.2-4.8h3.5a2.5 2.5 0 0 0 2.8 2.3c1.9 0 2.7-.9 2.7-2.1s-.5-1.7-2.2-2l-2.3-.4c-2.4-.5-4.1-1.9-4.1-4.4s2.2-4.8 5.9-4.8 5.7 2 5.8 4.4ZM447.4 501.5h-5.7l-1.2 3.5h-3.2l5.5-15.7h3.7l5.6 15.7h-3.5Zm-3.5-7.1-1.4 4.6h4.1l-1.4-4.5a11.3 11.3 0 0 1-.6-2.3h-.1a15 15 0 0 1-.6 2.2M458.7 489.3h4.9l2.8 8.4a16 16 0 0 1 .7 2.3l.7-2.3 2.8-8.4h4.9V505h-3.3v-12.3h-.1a27 27 0 0 1-1 3.3l-2.9 9h-2.5l-2.9-9a27 27 0 0 1-1-3.3V505h-3.1ZM478.6 489.3h3.4V505h-3.4ZM485.2 489.3h3.7l5 8.5a17 17 0 0 1 1.2 2.3v-10.8h3.1V505h-3.5l-5.3-8.7a12.8 12.8 0 0 1-1.1-2.4h-.1V505h-3ZM501.3 489.3h3.4V505h-3.4Z" style="fill:#fff" transform="translate(.4 .4)"/></svg>