<svg xmlns="http://www.w3.org/2000/svg" width="512" height="512" fill="none"><defs><clipPath id="a" clipPathUnits="userSpaceOnUse"><path d="M0 792h612V0H0Z"/></clipPath></defs><g clip-path="url(#a)" style="display:inline" transform="matrix(.0737 0 0 -.0737 345.227 480.72)"><path d="M0 0c53.332-53.285 126.698-86.317 207.744-86.646 164.049-.664 298.355 134.38 297.699 299.337-.324 81.496-33.176 155.271-86.17 208.899z" style="fill:#292826;fill-opacity:1;fill-rule:nonzero;stroke:none" transform="translate(59.729 115.352)"/><path d="m0 0-419.273-421.59c.298-.298.606-.587.906-.884 146.894 74.925 348.023 206.579 486.003 316.297C52.756-65.97 29.506-29.859 0 0" style="fill:#009789;fill-opacity:1;fill-rule:nonzero;stroke:none" transform="translate(479.002 536.942)"/><path d="M0 0c-163.742 0-296.482-133.473-296.482-298.121 0-81.979 32.915-156.223 86.172-210.117l419.273 421.59C155.364-33.096 81.529 0 0 0" style="fill:#292826;fill-opacity:1;fill-rule:nonzero;stroke:none" transform="translate(397.037 747)"/><path d="M0 0c-56.714 0-109.702-16.022-154.751-43.796-24.127 6.312-54.061 11.37-88.437 11.157-59.938-.372-108.713-16.603-141.822-31.784-8.218-3.768-6.898-15.967 1.941-17.829 21.801-4.593 50.498-14.324 78.883-35.28 17.931-13.238 31.574-27.883 41.856-41.597-21.794-41.504-34.152-88.793-34.152-138.992 0-29.952 4.412-58.865 12.586-86.137 12.54 27.79 25.699 46.391 29.916 52.184 27.229 37.41 56.015 56.883 98.542 85.651 31.328 21.193 74.856 46.047 199.916 97.449 0 0 39.121 11.017 91.587 42.212 20.912 12.433 36.823 24.17 41.863 42.526q.53 1.94.973 3.83C129.175-22.506 67.208 0 0 0" style="fill:#262523;fill-opacity:1;fill-rule:nonzero;stroke:none" transform="translate(397.037 747)"/><path d="M0 0c10.875-19.229-10.891-52.305-48.616-73.879-37.725-21.573-77.124-23.474-88-4.245-10.875 19.229 10.891 52.305 48.617 73.879C-50.274 17.328-10.875 19.229 0 0" style="fill:#fff;fill-opacity:1;fill-rule:nonzero;stroke:none" transform="translate(446.556 646.804)"/></g><g aria-label="Orca" style="font-size:31.8474px;fill:#f9f9f9;fill-opacity:.8;fill-rule:evenodd;stroke:#1a1a1a;stroke-width:1.19308"><path d="M246.335 105.056q-3.12 0-5.477-.955-2.325-.956-3.695-2.866-1.337-1.943-1.465-4.778-.031-1.305-.031-2.77t.031-2.835q.128-2.802 1.465-4.745t3.695-2.962q2.356-1.019 5.477-1.019t5.478 1.02q2.357 1.018 3.695 2.961 1.369 1.943 1.465 4.745.063 1.37.063 2.835t-.063 2.77q-.128 2.835-1.497 4.778-1.338 1.91-3.695 2.866-2.324.955-5.446.955zm0-6.21q1.051 0 1.688-.605.637-.637.67-1.975.063-1.37.063-2.707t-.064-2.643q-.032-.892-.35-1.465-.287-.573-.796-.828-.51-.287-1.21-.287-.67 0-1.21.287-.51.255-.829.828-.286.573-.318 1.465-.032 1.306-.032 2.643 0 1.338.032 2.707.063 1.338.669 1.975.637.605 1.687.605zM260.444 104.738q-.35 0-.605-.255t-.255-.605V89.037q0-.35.255-.605t.605-.255h5.573q.35 0 .605.255t.255.605v1.115q1.02-.892 2.261-1.433 1.274-.542 2.707-.542h1.529q.35 0 .605.255t.255.605v4.968q0 .35-.255.605t-.605.255h-4.108q-.956 0-1.434.478-.477.477-.477 1.433v7.102q0 .35-.255.605t-.605.255zM284.52 105.056q-2.42 0-4.394-.828-1.975-.86-3.185-2.484t-1.338-3.98q-.032-.51-.032-1.275t.032-1.305q.128-2.357 1.306-3.981 1.21-1.656 3.185-2.484 2.006-.86 4.427-.86 2.515 0 4.267.732 1.784.7 2.866 1.752 1.115 1.019 1.625 2.038.541 1.02.573 1.656.032.35-.255.605-.255.255-.605.255h-6.21q-.35 0-.574-.16-.19-.19-.35-.477-.223-.446-.478-.7-.223-.255-.7-.255-.733 0-.988.541-.254.541-.286 1.497-.032 1.37 0 2.261.064 1.02.286 1.529.255.477.988.477.573 0 .764-.254.223-.255.414-.701.127-.287.35-.446.223-.191.574-.191h6.21q.35 0 .605.255.287.255.255.605-.032.414-.35 1.178-.287.733-.956 1.593-.637.86-1.72 1.656-1.083.764-2.643 1.274-1.56.477-3.662.477zM301.177 105.056q-1.816 0-3.217-.669-1.401-.668-2.197-1.815-.765-1.146-.765-2.58 0-2.324 1.88-3.63 1.91-1.338 5.095-1.88l3.376-.54v-.032q0-.828-.16-1.21-.127-.383-.796-.383-.446 0-.732.191-.255.16-.573.478-.35.35-.892.35h-5.414q-.319 0-.542-.19-.19-.192-.159-.51.032-.605.51-1.402.477-.828 1.465-1.592 1.019-.764 2.58-1.274 1.592-.51 3.821-.51 2.166 0 3.758.478 1.624.446 2.675 1.338 1.051.86 1.56 2.166.542 1.273.542 2.898v9.14q0 .35-.255.605-.254.255-.605.255h-5.573q-.35 0-.605-.255t-.255-.605v-.892q-.446.637-1.146 1.115-.67.446-1.53.7-.859.255-1.846.255zm2.197-4.713q.637 0 1.083-.255.478-.255.732-.796.255-.573.255-1.401v-.032l-1.879.414q-.828.19-1.114.51-.287.318-.287.668 0 .223.127.446.16.191.414.318.287.128.67.128z" style="font-weight:900;font-family:Rubik;-inkscape-font-specification:&quot;Rubik Heavy&quot;;text-align:center;text-anchor:middle" transform="translate(160.271 346.817)"/></g><g aria-label="Slicer" style="font-size:22.8809px;text-align:center;text-anchor:middle;fill:#f9f9f9;fill-opacity:.8;stroke:#1a1a1a;stroke-width:.857176"><path d="M244.84 127.6q-2.54 0-4.188-.686t-2.471-1.808q-.824-1.12-.87-2.38 0-.205.138-.342.16-.16.366-.16h4.347q.366 0 .55.114.205.091.434.274.229.16.458.298.251.114.549.183.32.046.686.046.778 0 1.236-.16.48-.184.48-.481 0-.275-.274-.458-.252-.183-.893-.32-.64-.16-1.784-.297-1.808-.252-3.135-.847t-2.06-1.625q-.709-1.052-.709-2.562 0-1.556.87-2.746.892-1.19 2.448-1.853 1.579-.664 3.66-.664 1.717 0 3.044.458 1.327.435 2.242 1.167.916.709 1.396 1.533.48.823.504 1.579 0 .205-.16.366-.138.137-.321.137h-4.576q-.32 0-.526-.092-.183-.091-.39-.274-.114-.115-.434-.252-.298-.16-.778-.16-.572 0-.847.183-.251.16-.251.458 0 .206.206.389t.755.32 1.578.275q2.289.274 3.661.892 1.396.595 2.014 1.602.64 1.006.64 2.494 0 1.67-1.006 2.883-.984 1.212-2.7 1.876-1.716.64-3.89.64zM254.495 127.372q-.252 0-.435-.183-.183-.184-.183-.435v-15.01q0-.252.183-.435t.435-.183h4.096q.251 0 .434.183t.183.435v15.01q0 .251-.183.435-.183.183-.434.183zM263.121 127.372q-.252 0-.435-.183-.183-.184-.183-.435V116.09q0-.251.183-.434.183-.184.435-.184h4.096q.251 0 .434.184.183.183.183.434v10.663q0 .251-.183.435-.183.183-.434.183zm.114-13.157q-.251 0-.434-.183t-.183-.435v-2.768q0-.252.183-.435t.434-.183h3.867q.252 0 .435.183t.183.435v2.768q0 .252-.183.435t-.435.183zM276.14 127.6q-1.739 0-3.157-.595-1.419-.617-2.288-1.784-.87-1.167-.961-2.86-.023-.366-.023-.916 0-.549.023-.938.091-1.693.938-2.86.87-1.19 2.288-1.785 1.441-.617 3.18-.617 1.808 0 3.066.526 1.282.503 2.06 1.258.8.733 1.166 1.465.39.732.412 1.19.023.251-.183.434-.183.183-.435.183h-4.461q-.252 0-.412-.114-.137-.137-.252-.343-.16-.32-.343-.504-.16-.183-.503-.183-.527 0-.71.39-.183.388-.206 1.075-.023.984 0 1.624.046.732.206 1.099.183.343.71.343.411 0 .549-.183.16-.183.297-.504.092-.206.252-.32.16-.137.412-.137h4.462q.251 0 .434.183.206.183.183.434-.023.298-.251.847-.206.526-.687 1.144-.457.618-1.235 1.19-.778.55-1.9.915-1.12.343-2.63.343zM290.464 127.6q-2.998 0-4.782-1.464-1.762-1.487-1.762-4.69v-.161q.045-1.967.846-3.317.824-1.35 2.265-2.037 1.465-.686 3.41-.686 2.242 0 3.684.87 1.441.846 2.127 2.264.71 1.396.71 3.09v.686q0 .251-.183.435-.183.183-.435.183h-6.818v.114q0 .458.068.778.092.297.298.458.205.16.526.16.137 0 .229-.046.114-.046.206-.137l.228-.23q.206-.205.344-.25.137-.07.411-.07h4.325q.229 0 .366.138.16.137.137.366-.023.435-.412 1.052-.366.595-1.12 1.167-.756.572-1.923.961-1.167.366-2.745.366zm-.939-7.688h1.831v-.023q0-.503-.114-.823-.092-.32-.298-.458-.206-.16-.503-.16t-.504.16q-.206.137-.32.458-.091.32-.091.823zM299.181 127.372q-.251 0-.435-.183-.183-.184-.183-.435V116.09q0-.251.183-.434.184-.184.435-.184h4.004q.252 0 .435.184.183.183.183.434v.801q.732-.64 1.625-1.03.915-.389 1.945-.389h1.098q.252 0 .435.184.183.183.183.434v3.57q0 .251-.183.434t-.435.183h-2.952q-.686 0-1.03.344t-.343 1.03v5.102q0 .251-.183.435-.183.183-.434.183z" style="font-weight:900;font-family:Rubik;-inkscape-font-specification:&quot;Rubik Heavy&quot;" transform="translate(160.271 346.817)"/></g></svg>