<svg xmlns="http://www.w3.org/2000/svg" width="500" height="500"><g fill="none" fill-rule="evenodd"><g style="display:inline;fill:none;fill-opacity:1;stroke:#fff"><g style="fill:none;fill-opacity:1;stroke:#fff"><path d="M130.987 983.055H78.632M78.632 981.624v6.345M77.246 987.969h55.764M85.081 1022.878a136 136 0 0 0 1.723 4.549M157.632 863.476l-.197 38.111M157.435 901.587l-4.602-5.092M136.899 876.773a230 230 0 0 0 15.934 19.722M126.39 858.708a107.3 107.3 0 0 0 10.509 18.065M121.436 842.92a66.2 66.2 0 0 0 4.954 15.788M122.455 830.137a25.1 25.1 0 0 0-1.02 12.784M157.853 864.203 130.66 818.97M213.959 1122.52h19.255" style="fill:none;fill-opacity:1;stroke:#fff;stroke-width:2.86104;stroke-miterlimit:4;stroke-dasharray:none" transform="matrix(.4759 0 0 .4759 139.18 -184.056)"/><path d="M73.084 717.326 34.68 699.899M34.679 699.899l17.012 41.786M51.69 741.685l21.394-24.359M0 664.71l130.987 318.345M133.01 987.969l5.824 14.141M140.665 1006.56l6.194 15.04M148.997 1026.79l8.816 21.4M83.347 702.348l149.867-.557M233.214 1080.19V701.791M233.214 1080.19h-51.232M85.082 1022.88l53.752-20.77M140.665 1006.56l-53.86 20.87M111.5 1063.7l37.497-36.91M146.859 1021.6l-38.762 38.76M108.097 1060.36l3.403 3.34M157.813 1048.19l24.169 32M188.834 1089.26l25.125 33.26M0 664.71l83.347 37.638M233.214 1089.26h-44.38M233.214 1122.52v-33.26M130.66 818.97a24.94 24.94 0 0 0-8.205 11.167" style="fill:none;fill-opacity:1;stroke:#fff;stroke-width:2.86104;stroke-linecap:round;stroke-miterlimit:4;stroke-dasharray:none" transform="matrix(.4759 0 0 .4759 139.18 -184.056)"/></g></g></g></svg>